<?xml version="1.0" encoding="UTF-8" standalone="no"?>
<!-- Created with Inkscape (http://www.inkscape.org/) -->

<svg
   width="200mm"
   height="200mm"
   viewBox="0 0 200 200"
   version="1.1"
   id="svg5"
   inkscape:version="1.1 (c4e8f9ed74, 2021-05-24)"
   sodipodi:docname="alfamart.svg"
   inkscape:export-filename="/home/iamhkmid/Dev/bankIcon/new/bca.png"
   inkscape:export-xdpi="60.48"
   inkscape:export-ydpi="60.48"
   xmlns:inkscape="http://www.inkscape.org/namespaces/inkscape"
   xmlns:sodipodi="http://sodipodi.sourceforge.net/DTD/sodipodi-0.dtd"
   xmlns="http://www.w3.org/2000/svg"
   xmlns:svg="http://www.w3.org/2000/svg">
  <sodipodi:namedview
     id="namedview7"
     pagecolor="#ffffff"
     bordercolor="#666666"
     borderopacity="1.0"
     inkscape:pageshadow="2"
     inkscape:pageopacity="0.0"
     inkscape:pagecheckerboard="true"
     inkscape:document-units="mm"
     showgrid="false"
     borderlayer="true"
     inkscape:zoom="0.50000001"
     inkscape:cx="350.99999"
     inkscape:cy="350.99999"
     inkscape:window-width="1366"
     inkscape:window-height="716"
     inkscape:window-x="0"
     inkscape:window-y="0"
     inkscape:window-maximized="1"
     inkscape:current-layer="layer1" />
  <defs
     id="defs2" />
  <g
     inkscape:label="Layer 1"
     inkscape:groupmode="layer"
     id="layer1">
    <g
       id="g1269"
       transform="matrix(0.58707948,0,0,0.58707948,27.246545,44.64177)">
      <path
         style="fill:#fedc5b;stroke-width:0.264583"
         d="m 256.98001,139.88413 c 0.25466,-0.0665 0.67138,-0.0665 0.92604,0 0.25466,0.0666 0.0463,0.12101 -0.46302,0.12101 -0.50932,0 -0.71768,-0.0545 -0.46302,-0.12101 z m 10.2526,-4.13373 c 0,-0.0455 0.38696,-0.43249 0.8599,-0.8599 l 0.8599,-0.77711 -0.77711,0.8599 c -0.72438,0.80155 -0.94269,0.98151 -0.94269,0.77711 z M 46.922518,134.04725 c 38.538564,-0.0369 101.522622,-0.0369 139.964582,0 38.44197,0.0369 6.91041,0.0671 -70.07011,0.0671 -76.980524,0 -108.4330348,-0.0302 -69.894472,-0.0671 z m 211.512702,-0.24138 c 0.1819,-0.0734 0.47956,-0.0734 0.66146,0 0.1819,0.0734 0.0331,0.13346 -0.33073,0.13346 -0.3638,0 -0.51263,-0.0601 -0.33073,-0.13346 z m 10.38489,-4.158 c 0,-0.0549 0.20836,-0.2633 0.46302,-0.46302 0.41966,-0.3291 0.429,-0.31975 0.0999,0.0999 -0.34565,0.44073 -0.56293,0.58089 -0.56293,0.36312 z m -0.79375,-4.79489 c 0.49366,-0.50933 0.95708,-0.92604 1.02984,-0.92604 0.0728,0 -0.27159,0.41671 -0.76525,0.92604 -0.49366,0.50932 -0.95708,0.92604 -1.02984,0.92604 -0.0728,0 0.27159,-0.41672 0.76525,-0.92604 z m 5.04796,-10.86997 c 0.0127,-0.30822 0.0754,-0.37092 0.15986,-0.15985 0.0764,0.19099 0.067,0.4192 -0.0209,0.50712 -0.0879,0.0879 -0.15047,-0.0683 -0.13898,-0.34727 z M 196.8197,94.359747 c -0.32911,-0.419645 -0.31975,-0.429004 0.0999,-0.0999 0.44073,0.345643 0.58089,0.562916 0.36313,0.562916 -0.0549,0 -0.2633,-0.208359 -0.46302,-0.46302 z m 10.61708,0.09854 c 0,-0.05494 0.20836,-0.2633 0.46302,-0.463021 0.41965,-0.329107 0.429,-0.319749 0.0999,0.0999 -0.34565,0.44073 -0.56292,0.580888 -0.56292,0.363125 z m -40.13077,-0.603364 c 0.0958,-0.09575 0.0263,-0.363643 -0.15434,-0.595312 -0.29013,-0.372092 -0.27477,-0.379148 0.13168,-0.06051 0.41392,0.324499 0.41961,0.829916 0.009,0.829916 -0.0884,0 -0.0824,-0.07834 0.0133,-0.174093 z m 56.60166,-1.810282 c 0.003,-0.582083 0.0571,-0.789053 0.12042,-0.459936 0.0633,0.329118 0.0609,0.805368 -0.005,1.058334 -0.0662,0.252965 -0.11801,-0.01632 -0.11507,-0.598398 z M 212.78983,91.91235 c 0,-0.509323 0.0545,-0.717683 0.121,-0.463021 0.0666,0.254661 0.0666,0.67138 0,0.926041 -0.0666,0.254662 -0.121,0.0463 -0.121,-0.46302 z m -5.86133,-2.271007 c 0.0127,-0.308226 0.0754,-0.370919 0.15985,-0.159853 0.0764,0.190995 0.067,0.419198 -0.0209,0.507119 -0.0879,0.08792 -0.15046,-0.06835 -0.13897,-0.347266 z m 61.93339,-0.374827 c 0,-0.363802 0.0601,-0.51263 0.13346,-0.330729 0.0734,0.181901 0.0734,0.479557 0,0.661458 -0.0734,0.181901 -0.13346,0.03307 -0.13346,-0.330729 z m -73.80895,-0.396875 c 0.005,-0.436562 0.0647,-0.583126 0.13178,-0.325694 0.0671,0.257432 0.0627,0.614619 -0.01,0.79375 -0.0725,0.179131 -0.12736,-0.03149 -0.12197,-0.468056 z M 165.70467,87.9436 c 0,-0.654843 0.0516,-0.922734 0.11467,-0.595312 0.0631,0.327422 0.0631,0.863203 0,1.190625 -0.0631,0.327422 -0.11467,0.05953 -0.11467,-0.595313 z m 94.58263,0.618522 c 0.1819,-0.0734 0.47956,-0.0734 0.66146,0 0.1819,0.0734 0.0331,0.133453 -0.33073,0.133453 -0.3638,0 -0.51263,-0.06006 -0.33073,-0.133453 z m -13.89004,-1.809147 c 0.003,-0.582083 0.0571,-0.789053 0.12041,-0.459935 0.0633,0.329117 0.0609,0.805367 -0.005,1.058333 -0.0662,0.252965 -0.11801,-0.01632 -0.11507,-0.598398 z m -62.75209,-1.609547 c 0.0127,-0.308227 0.0754,-0.37092 0.15985,-0.159854 0.0764,0.190995 0.067,0.419198 -0.0209,0.507119 -0.0879,0.08792 -0.15045,-0.06835 -0.13896,-0.347265 z m 0.0209,-2.226911 c 0,-0.363802 0.0601,-0.51263 0.13346,-0.330729 0.0734,0.181901 0.0734,0.479557 0,0.661458 -0.0734,0.181901 -0.13346,0.03307 -0.13346,-0.330729 z m 62.94994,0.110244 c 0.0127,-0.308227 0.0754,-0.37092 0.15986,-0.159854 0.0764,0.190995 0.067,0.419198 -0.0209,0.507119 -0.0879,0.08792 -0.15047,-0.06835 -0.13899,-0.347265 z m 10.84792,-0.529167 c 0.0127,-0.308226 0.0754,-0.370919 0.15986,-0.159853 0.0764,0.190995 0.067,0.419198 -0.0209,0.507119 -0.0879,0.08792 -0.15047,-0.06835 -0.13899,-0.347266 z M 206.9285,81.968427 c 0.0127,-0.308226 0.0754,-0.370919 0.15985,-0.159853 0.0764,0.190995 0.067,0.419198 -0.0209,0.507119 -0.0879,0.08792 -0.15046,-0.06835 -0.13897,-0.347266 z m -58.37239,-12.29868 c -0.0959,-0.155202 -0.11766,-0.338932 -0.0483,-0.408287 0.0693,-0.06936 0.1966,0.05763 0.28277,0.282186 0.17891,0.466225 0.0264,0.548233 -0.23447,0.126101 z m -12.02766,-1.966773 c 0.34177,-0.363802 0.68094,-0.661458 0.7537,-0.661458 0.0728,0 -0.14735,0.297656 -0.48912,0.661458 -0.34178,0.363802 -0.68094,0.661459 -0.7537,0.661459 -0.0728,0 0.14734,-0.297657 0.48912,-0.661459 z m 20.76979,-0.396875 c 0.26339,-0.291041 0.53842,-0.529166 0.61118,-0.529166 0.0728,0 -0.0832,0.238125 -0.3466,0.529166 -0.26339,0.291042 -0.53842,0.529167 -0.61118,0.529167 -0.0728,0 0.0832,-0.238125 0.3466,-0.529167 z m 1.74068,-0.154339 c 0.0127,-0.308226 0.0754,-0.370919 0.15985,-0.159853 0.0764,0.190994 0.067,0.419198 -0.0209,0.507119 -0.0879,0.08792 -0.15045,-0.06835 -0.13896,-0.347266 z M 132.5597,64.295786 c 0,-0.05494 0.20836,-0.2633 0.46302,-0.46302 0.41964,-0.329108 0.429,-0.319749 0.0999,0.0999 -0.34564,0.440729 -0.56291,0.580887 -0.56291,0.363124 z m 86.32623,-0.958437 c 0,-0.654844 0.0516,-0.922734 0.11466,-0.595312 0.0631,0.327421 0.0631,0.863203 0,1.190625 -0.0631,0.327422 -0.11466,0.05953 -0.11466,-0.595313 z m -37.6429,-0.132292 c 0.34178,-0.363802 0.68094,-0.661458 0.7537,-0.661458 0.0728,0 -0.14734,0.297656 -0.48912,0.661458 -0.34177,0.363803 -0.68094,0.661459 -0.7537,0.661459 -0.0728,0 0.14734,-0.297656 0.48912,-0.661459 z m 85.53159,-0.315645 c 0.25744,-0.06708 0.61463,-0.06267 0.79375,0.0098 0.17915,0.07248 -0.0315,0.127362 -0.46805,0.12197 -0.43656,-0.0054 -0.58311,-0.06469 -0.3257,-0.131773 z M 134.41178,62.443703 c 0,-0.05494 0.20836,-0.2633 0.46302,-0.463021 0.41965,-0.329107 0.429,-0.319749 0.0999,0.0999 -0.34565,0.44073 -0.56292,0.580888 -0.56292,0.363125 z m 100.0125,0.01712 c 0,-0.04554 0.38695,-0.432488 0.8599,-0.859896 l 0.85989,-0.777105 -0.77711,0.859895 c -0.72437,0.801545 -0.94268,0.981512 -0.94268,0.777106 z M 128.6981,59.03787 l -0.50403,-0.595313 0.59531,0.504029 c 0.32743,0.277214 0.59532,0.545105 0.59532,0.595312 0,0.211733 -0.21294,0.05542 -0.6866,-0.504028 z m 39.81118,-0.132292 c -0.32911,-0.419645 -0.31975,-0.429003 0.0999,-0.0999 0.44073,0.345644 0.58088,0.562917 0.36312,0.562917 -0.0549,0 -0.2633,-0.208359 -0.46302,-0.463021 z m 76.46457,-0.529167 c -0.32909,-0.419645 -0.31975,-0.429003 0.0999,-0.0999 0.25466,0.199721 0.46302,0.40808 0.46302,0.463021 0,0.217763 -0.21728,0.0776 -0.56293,-0.363125 z m 6.93381,-2.601736 c 0.0127,-0.308224 0.0754,-0.370919 0.15986,-0.159852 0.0764,0.190996 0.067,0.419199 -0.0209,0.507118 -0.0879,0.08792 -0.15047,-0.06835 -0.13899,-0.347266 z"
         id="path992" />
      <path
         style="fill:#8da1d2;stroke-width:0.264583"
         d="m 84.885086,96.229528 c 0.190995,-0.07643 0.419201,-0.06703 0.507119,0.02088 0.08792,0.08792 -0.06835,0.150452 -0.347265,0.138964 -0.308227,-0.0127 -0.37092,-0.07539 -0.159854,-0.159851 z M -16.59916,95.963299 c 0.254662,-0.06655 0.671381,-0.06655 0.926042,0 0.254662,0.06655 0.0463,0.121002 -0.463021,0.121002 -0.509323,0 -0.717682,-0.05445 -0.463021,-0.121002 z m 31.356211,-0.0047 c 0.329118,-0.06329 0.805368,-0.06088 1.058333,0.0053 0.252966,0.06622 -0.01633,0.118005 -0.598397,0.115068 -0.582084,-0.0029 -0.789054,-0.05712 -0.459936,-0.120407 z m 17.85629,0.0047 c 0.254661,-0.06655 0.67138,-0.06655 0.926042,0 0.254661,0.06655 0.0463,0.121002 -0.463021,0.121002 -0.509323,0 -0.717683,-0.05445 -0.463021,-0.121002 z m 21.566627,-0.0047 c 0.329118,-0.06329 0.805368,-0.06088 1.058333,0.0053 0.252966,0.06622 -0.01633,0.118005 -0.598397,0.115068 -0.582084,-0.0029 -0.789054,-0.05712 -0.459936,-0.120407 z m -25.758953,-1.731108 -0.504028,-0.595313 0.595312,0.504029 c 0.327422,0.277215 0.595313,0.545105 0.595313,0.595313 0,0.211732 -0.212934,0.05542 -0.686597,-0.504029 z m 21.431251,0 -0.504029,-0.595313 0.595312,0.504029 c 0.327422,0.277215 0.595313,0.545105 0.595313,0.595313 0,0.211732 -0.212934,0.05542 -0.686596,-0.504029 z m -27.809119,-4.69639 c 0,-0.800365 0.0496,-1.127787 0.110222,-0.727605 0.06062,0.400183 0.06062,1.055026 0,1.455209 -0.06062,0.400182 -0.110222,0.07276 -0.110222,-0.727604 z m 25.913011,-9.965974 c -0.04883,-8.629786 -0.138036,-11.186822 -0.393859,-11.290049 -0.259043,-0.104527 -0.257243,-0.137981 0.0083,-0.15434 0.186471,-0.01148 0.396174,0.128016 0.466011,0.310007 0.06984,0.181994 0.09451,5.271916 0.05483,11.310938 l -0.07216,10.980043 z m -8.488021,9.70139 c 0,-0.363802 0.06005,-0.51263 0.133453,-0.330729 0.0734,0.181901 0.0734,0.479557 0,0.661458 -0.0734,0.181901 -0.133453,0.03307 -0.133453,-0.330729 z M 26.322541,70.613391 c -2.3e-5,-10.33198 0.03281,-14.597208 0.07296,-9.478286 0.04015,5.118924 0.04018,13.572362 4.5e-5,18.785418 -0.04013,5.213057 -0.07298,1.024848 -0.073,-9.307132 z M 88.04355,86.963126 c 0.327422,-0.06307 0.863203,-0.06307 1.190625,0 0.327422,0.06306 0.05953,0.114662 -0.595313,0.114662 -0.654843,0 -0.922734,-0.0516 -0.595312,-0.114662 z m 6.193337,-6.427859 c 0,-0.363802 0.06006,-0.512631 0.133454,-0.330729 0.0734,0.181901 0.0734,0.479557 0,0.661458 -0.0734,0.181901 -0.133454,0.03307 -0.133454,-0.330729 z m -12.191719,-0.15434 c 0.0127,-0.308226 0.07539,-0.370919 0.15985,-0.159853 0.07643,0.190995 0.06703,0.419198 -0.02087,0.507119 -0.08792,0.08792 -0.150453,-0.06835 -0.138965,-0.347266 z M 68.846693,79.609225 c 0.0054,-0.436563 0.06469,-0.583126 0.131773,-0.325694 0.06708,0.257431 0.06267,0.614619 -0.0098,0.79375 -0.07248,0.179131 -0.127363,-0.03149 -0.121971,-0.468056 z m 12.974386,-2.248958 c 0,-0.509323 0.05445,-0.717683 0.121002,-0.463021 0.06655,0.254661 0.06655,0.67138 0,0.926041 -0.06655,0.254662 -0.121002,0.0463 -0.121002,-0.46302 z M 68.856495,76.03735 c 0,-0.509323 0.05445,-0.717683 0.121002,-0.463021 0.06655,0.254661 0.06655,0.67138 0,0.926042 -0.06655,0.254661 -0.121002,0.0463 -0.121002,-0.463021 z m -71.8296128,-0.7263 c 1.3460678,-0.04802 3.54872403,-0.04802 4.8947918,0 1.3460677,0.04802 0.2447395,0.08731 -2.44739591,0.08731 -2.69213539,0 -3.79346359,-0.03929 -2.44739589,-0.08731 z M 94.246693,74.846725 c 0.0054,-0.436563 0.06469,-0.583126 0.131773,-0.325694 0.06708,0.257431 0.06267,0.614619 -0.0098,0.79375 -0.07248,0.17913 -0.127363,-0.03149 -0.12197,-0.468056 z M 82.045168,74.29551 c 0.0127,-0.308226 0.07539,-0.370919 0.15985,-0.159853 0.07643,0.190995 0.06703,0.419198 -0.02087,0.507119 -0.08792,0.08792 -0.150453,-0.06835 -0.138965,-0.347266 z M 61.579316,68.173475 c 0.469696,-0.05845 1.303134,-0.05941 1.852083,-0.0021 0.548947,0.05728 0.164651,0.105098 -0.853995,0.106273 -1.018646,0.0011 -1.467787,-0.04569 -0.998088,-0.104138 z M 88.04355,67.648542 c 0.327422,-0.06307 0.863203,-0.06307 1.190625,0 0.327422,0.06306 0.05953,0.114662 -0.595313,0.114662 -0.654843,0 -0.922734,-0.0516 -0.595312,-0.114662 z M 42.388359,63.734224 c 0.0054,-0.436562 0.06469,-0.583126 0.131773,-0.325694 0.06708,0.257432 0.06267,0.614619 -0.0098,0.79375 -0.07248,0.179131 -0.127362,-0.03149 -0.12197,-0.468056 z m 31.963003,-0.529167 c 0.493654,-0.509323 0.957085,-0.926041 1.029846,-0.926041 0.07276,0 -0.271608,0.416718 -0.765262,0.926041 -0.493655,0.509323 -0.957086,0.926042 -1.029846,0.926042 -0.07276,0 0.271608,-0.416719 0.765262,-0.926042 z M 43.527404,60.691516 c 0.26339,-0.291042 0.538421,-0.529167 0.611182,-0.529167 0.07276,0 -0.08321,0.238125 -0.346599,0.529167 -0.26339,0.291041 -0.538422,0.529166 -0.611182,0.529166 -0.07276,0 0.08321,-0.238125 0.346599,-0.529166 z m 24.175625,-0.198438 c -0.329108,-0.419645 -0.319749,-0.429003 0.0999,-0.0999 0.440729,0.345644 0.580887,0.562917 0.363124,0.562917 -0.05494,0 -0.2633,-0.208359 -0.46302,-0.463021 z m -20.612828,-1.272857 0.784672,-0.148379 0.08983,-2.630315 0.08984,-2.630316 -0.01461,2.712548 -0.01462,2.712548 -0.859896,0.06615 c -0.830987,0.06392 -0.833514,0.06116 -0.07522,-0.08223 z M 61.8498,59.174868 c 0.618463,-0.0557 1.630494,-0.0557 2.248958,0 0.618463,0.05571 0.112448,0.101283 -1.124479,0.101283 -1.236927,0 -1.742943,-0.04558 -1.124479,-0.101283 z m 23.035286,-1.045342 c 0.190995,-0.07643 0.419201,-0.06703 0.507119,0.02088 0.08792,0.08792 -0.06835,0.150452 -0.347265,0.138964 -0.308227,-0.0127 -0.37092,-0.07539 -0.159854,-0.159851 z m 2.761589,-0.266229 c 0.254661,-0.06655 0.67138,-0.06655 0.926041,0 0.254662,0.06655 0.0463,0.121002 -0.46302,0.121002 -0.509323,0 -0.717683,-0.05445 -0.463021,-0.121002 z m 13.096875,0.0072 c 0.1819,-0.0734 0.47956,-0.0734 0.66146,0 0.1819,0.0734 0.0331,0.133453 -0.33073,0.133453 -0.3638,0 -0.51263,-0.06005 -0.33073,-0.133453 z M 39.468137,51.960265 c 0,-0.363802 0.06005,-0.51263 0.133453,-0.330729 0.0734,0.181901 0.0734,0.479557 0,0.661458 -0.0734,0.181901 -0.133453,0.03307 -0.133453,-0.330729 z M 69.664536,50.76964 c 0.0021,-0.727604 0.05337,-0.993858 0.114186,-0.591674 0.06082,0.402183 0.05919,0.997495 -0.0036,1.322916 -0.06281,0.325421 -0.112572,-0.0036 -0.110586,-0.731242 z M 50.538862,48.38839 c 0.341775,-0.363802 0.68094,-0.661458 0.7537,-0.661458 0.07276,0 -0.147341,0.297656 -0.489117,0.661458 -0.341775,0.363802 -0.680939,0.661458 -0.7537,0.661458 -0.07276,0 0.147341,-0.297656 0.489117,-0.661458 z M -3.2211646,45.694108 c 0.1909947,-0.07643 0.4191979,-0.06703 0.5071189,0.02089 0.087918,0.08792 -0.068353,0.150453 -0.3472656,0.138965 -0.3082264,-0.0127 -0.3709194,-0.07539 -0.1598533,-0.159853 z m 5.0105469,0.0055 c 0.181901,-0.0734 0.4795573,-0.0734 0.6614583,0 0.1819011,0.0734 0.033073,0.133452 -0.3307291,0.133452 -0.3638021,0 -0.5126303,-0.06005 -0.3307292,-0.133452 z M 32.481049,45.158956 c 0.327422,-0.06307 0.863203,-0.06307 1.190625,0 0.327422,0.06306 0.05953,0.114662 -0.595312,0.114662 -0.654844,0 -0.922735,-0.0516 -0.595313,-0.114662 z m 26.590626,-0.006 c 0.545703,-0.05708 1.438671,-0.05708 1.984375,0 0.545703,0.05708 0.09922,0.103786 -0.992188,0.103786 -1.091406,0 -1.537891,-0.0467 -0.992187,-0.103786 z"
         id="path990" />
      <path
         style="fill:#fed402;stroke-width:0.264583"
         d="m -23.015305,137.15853 v -2.90798 l 140.956775,-0.0686 140.95677,-0.0686 2.11667,-0.60136 c 4.10638,-1.16668 7.12515,-2.90804 9.91272,-5.71815 0.94085,-0.94846 1.74413,-1.691 1.78503,-1.65008 0.19127,0.19127 -0.86431,3.1258 -1.69878,4.72259 -2.50973,4.80254 -7.50099,8.2065 -13.09931,8.93356 -1.1889,0.15441 -55.34795,0.25336 -141.42831,0.2584 l -139.501565,0.008 z"
         id="path988" />
      <path
         style="fill:#6b87c4;stroke-width:0.264583"
         d="m 85.678836,96.229528 c 0.190995,-0.07643 0.419201,-0.06703 0.507119,0.02088 0.08792,0.08792 -0.06835,0.150452 -0.347265,0.138964 -0.308227,-0.0127 -0.37092,-0.07539 -0.159854,-0.159851 z M 96.542612,94.62433 c -0.329107,-0.419645 -0.319749,-0.429003 0.0999,-0.0999 0.44073,0.345644 0.580888,0.562917 0.363125,0.562917 -0.05494,0 -0.2633,-0.20836 -0.463021,-0.463021 z M -11.770514,94.293601 c 0.26339,-0.291042 0.538422,-0.529167 0.611183,-0.529167 0.07276,0 -0.08321,0.238125 -0.346599,0.529167 -0.26339,0.291041 -0.538422,0.529166 -0.611183,0.529166 -0.07276,0 0.08321,-0.238125 0.346599,-0.529166 z m 48.815626,0.164687 c 0,-0.05494 0.208359,-0.2633 0.463021,-0.463021 0.419645,-0.329107 0.429003,-0.319749 0.0999,0.0999 -0.345644,0.44073 -0.562917,0.580888 -0.562917,0.363125 z m 2.506411,-23.844897 c 2.6e-5,-10.040938 0.03296,-14.110116 0.07319,-9.04262 0.04022,5.067499 0.0402,13.282812 -5e-5,18.256251 -0.04025,4.973442 -0.07316,0.827307 -0.07314,-9.213631 z m 42.249948,8.069792 c 0,-0.363802 0.06005,-0.51263 0.133453,-0.330729 0.0734,0.181901 0.0734,0.479557 0,0.661458 -0.0734,0.181901 -0.133453,0.03307 -0.133453,-0.330729 z m -12.934297,-0.79375 c 0,-0.654844 0.0516,-0.922734 0.114663,-0.595312 0.06307,0.327422 0.06307,0.863203 0,1.190625 -0.06306,0.327422 -0.114663,0.05953 -0.114663,-0.595313 z M 94.521079,77.62485 c 0,-0.509323 0.05445,-0.717682 0.121002,-0.463021 0.06655,0.254661 0.06655,0.67138 0,0.926042 -0.06655,0.254661 -0.121002,0.0463 -0.121002,-0.463021 z m -12.719608,-1.5875 c 0,-0.363802 0.06005,-0.51263 0.133453,-0.330729 0.0734,0.181901 0.0734,0.479557 0,0.661458 -0.0734,0.181901 -0.133453,0.03307 -0.133453,-0.330729 z m 14.6426,-16.139584 c 0.26339,-0.291042 0.538422,-0.529167 0.611182,-0.529167 0.07276,0 -0.08321,0.238125 -0.346599,0.529167 -0.26339,0.291041 -0.538422,0.529166 -0.611182,0.529166 -0.07276,0 0.08321,-0.238125 0.346599,-0.529166 z M 63.83921,54.422745 c 0.257431,-0.06708 0.614619,-0.06267 0.79375,0.0098 0.17913,0.07248 -0.03149,0.127362 -0.468056,0.121969 -0.436563,-0.0054 -0.583126,-0.06469 -0.325694,-0.131773 z M 7.1134446,47.793077 c -0.3291073,-0.419644 -0.319749,-0.429002 0.099896,-0.09989 0.4407297,0.345643 0.5808874,0.562915 0.3631247,0.562915 -0.054941,0 -0.2633001,-0.208359 -0.4630208,-0.463021 z M -2.4439511,45.69962 c 0.1819011,-0.0734 0.4795573,-0.0734 0.6614583,0 0.1819011,0.0734 0.033073,0.133452 -0.3307291,0.133452 -0.3638021,0 -0.5126302,-0.06005 -0.3307292,-0.133452 z m 3.4561198,-0.0055 c 0.1909948,-0.07643 0.4191979,-0.06703 0.507119,0.02089 0.087918,0.08792 -0.068353,0.150453 -0.3472657,0.138965 -0.30822631,-0.0127 -0.37091933,-0.07539 -0.1598533,-0.159853 z"
         id="path986" />
      <path
         style="fill:#f1684a;stroke-width:0.264583"
         d="m 47.187102,129.81392 c 38.684086,-0.0369 101.906278,-0.0369 140.493748,0 38.58749,0.0369 6.93687,0.0671 -70.3347,0.0671 -77.271559,0 -108.8431323,-0.0302 -70.159048,-0.0671 z m -70.150827,-6.54844 c 0.0054,-0.43657 0.06469,-0.58313 0.131773,-0.3257 0.06708,0.25743 0.06267,0.61462 -0.0098,0.79375 -0.07248,0.17913 -0.127363,-0.0315 -0.121971,-0.46805 z m 292.048425,0.29698 c 0,-0.0549 0.20836,-0.2633 0.46302,-0.46302 0.41965,-0.32911 0.42899,-0.31975 0.0999,0.0999 -0.34565,0.44073 -0.56292,0.58089 -0.56292,0.36313 z m 3.72504,-8.25653 c 0.0127,-0.30823 0.0754,-0.37092 0.15986,-0.15985 0.0764,0.19099 0.067,0.4192 -0.0209,0.50711 -0.0879,0.0879 -0.15047,-0.0683 -0.13899,-0.34726 z m -292.120879,-1.00389 c 0,-0.0549 0.20836,-0.2633 0.463021,-0.46302 0.419644,-0.32911 0.429002,-0.31975 0.0999,0.0999 -0.345644,0.44073 -0.562916,0.58089 -0.562916,0.36313 z m 292.464649,-3.60427 c 0,-1.67349 0.0429,-2.3581 0.0955,-1.52136 0.0525,0.83675 0.0525,2.20597 0,3.04271 -0.0525,0.83675 -0.0955,0.15214 -0.0955,-1.52135 z m -290.347982,1.4876 c 0,-0.0549 0.208359,-0.2633 0.463021,-0.46302 0.419645,-0.32911 0.429003,-0.31975 0.0999,0.0999 -0.345644,0.44073 -0.562917,0.58088 -0.562917,0.36312 z m 7.8878906,-4.04959 c 0.1909948,-0.0764 0.4191979,-0.067 0.507119,0.0209 0.087918,0.0879 -0.068353,0.15046 -0.3472657,0.13897 -0.3082263,-0.0127 -0.3709193,-0.0754 -0.1598533,-0.15985 z m 1.7032553,-0.26623 c 0.2546614,-0.0666 0.6713802,-0.0666 0.9260416,0 0.2546615,0.0665 0.046302,0.121 -0.4630208,0.121 -0.5093229,0 -0.7176823,-0.0545 -0.4630208,-0.121 z M 179.06496,96.218516 c 0.47554,-0.05889 1.18992,-0.05767 1.5875,0.0027 0.39757,0.06037 0.008,0.10855 -0.86464,0.107066 -0.87312,-0.0016 -1.19841,-0.05088 -0.72286,-0.109765 z m 76.45394,7.94e-4 c 0.46969,-0.05845 1.30313,-0.05941 1.85208,-0.0021 0.54896,0.05728 0.16465,0.105098 -0.85399,0.106273 -1.01865,0.0011 -1.46778,-0.04569 -0.99809,-0.104138 z M 116.88313,95.970456 c 0.1819,-0.0734 0.47956,-0.0734 0.66146,0 0.1819,0.0734 0.0331,0.133453 -0.33073,0.133453 -0.3638,0 -0.51263,-0.06006 -0.33073,-0.133453 z m 2.254,-0.0081 c 0.25743,-0.06708 0.61462,-0.06267 0.79375,0.0098 0.17913,0.07248 -0.0315,0.127363 -0.46806,0.121971 -0.43656,-0.0054 -0.58312,-0.06469 -0.32569,-0.131774 z m 18.13546,0.0026 c 0.19099,-0.07643 0.4192,-0.06703 0.50712,0.02088 0.0879,0.08792 -0.0684,0.150452 -0.34727,0.138964 -0.30823,-0.0127 -0.37092,-0.07539 -0.15985,-0.159851 z m 2.23745,-0.0026 c 0.25744,-0.06708 0.61462,-0.06267 0.79375,0.0098 0.17913,0.07248 -0.0315,0.127363 -0.46805,0.121971 -0.43656,-0.0054 -0.58313,-0.06469 -0.3257,-0.131774 z m 19.70643,0.0081 c 0.1819,-0.0734 0.47955,-0.0734 0.66146,0 0.1819,0.0734 0.0331,0.133453 -0.33073,0.133453 -0.36381,0 -0.51263,-0.06006 -0.33073,-0.133453 z m 2.11666,0 c 0.1819,-0.0734 0.47956,-0.0734 0.66146,0 0.1819,0.0734 0.0331,0.133453 -0.33073,0.133453 -0.3638,0 -0.51263,-0.06006 -0.33073,-0.133453 z m 38.89375,0 c 0.18191,-0.0734 0.47956,-0.0734 0.66146,0 0.1819,0.0734 0.0331,0.133453 -0.33073,0.133453 -0.3638,0 -0.51263,-0.06006 -0.33073,-0.133453 z m 2.38125,0 c 0.18191,-0.0734 0.47956,-0.0734 0.66146,0 0.1819,0.0734 0.0331,0.133453 -0.33073,0.133453 -0.3638,0 -0.51263,-0.06006 -0.33073,-0.133453 z m 14.42483,-0.0081 c 0.25743,-0.06708 0.61462,-0.06267 0.79375,0.0098 0.17913,0.07248 -0.0315,0.127363 -0.46805,0.121971 -0.43657,-0.0054 -0.58313,-0.06469 -0.3257,-0.131774 z m 2.50851,0.0081 c 0.1819,-0.0734 0.47956,-0.0734 0.66146,0 0.1819,0.0734 0.0331,0.133453 -0.33073,0.133453 -0.36381,0 -0.51263,-0.06006 -0.33073,-0.133453 z m 39.96862,-0.0055 c 0.191,-0.07643 0.4192,-0.06703 0.50712,0.02088 0.0879,0.08792 -0.0684,0.150453 -0.34726,0.138965 -0.30824,-0.0127 -0.37092,-0.07539 -0.15986,-0.159851 z m -145.49125,-1.340623 -0.64144,-0.727604 0.72761,0.641432 c 0.40018,0.35279 0.7276,0.680212 0.7276,0.727604 0,0.207507 -0.21426,0.03862 -0.81377,-0.641432 z m 20.62377,0.264583 c -0.3291,-0.419645 -0.31975,-0.429003 0.0999,-0.0999 0.44073,0.345644 0.58089,0.562917 0.36312,0.562917 -0.0549,0 -0.2633,-0.208359 -0.46302,-0.463021 z m 21.69584,-0.264583 c -0.32911,-0.419645 -0.31975,-0.429003 0.0999,-0.0999 0.44073,0.345644 0.58089,0.562917 0.36313,0.562917 -0.0549,0 -0.2633,-0.20836 -0.46302,-0.463021 z m 57.41458,0 c -0.32911,-0.419645 -0.31975,-0.429003 0.0999,-0.0999 0.44073,0.345644 0.58088,0.562917 0.36312,0.562917 -0.0549,0 -0.2633,-0.20836 -0.46302,-0.463021 z m 10.48479,0.198437 c 0.0899,-0.14552 0.21603,-0.264583 0.2802,-0.264583 0.0642,0 0.11668,0.119063 0.11668,0.264583 0,0.145521 -0.1261,0.264584 -0.2802,0.264584 -0.15412,0 -0.20661,-0.119063 -0.11668,-0.264584 z m 24.58961,-1.124479 -0.77711,-0.859896 0.8599,0.777105 c 0.80155,0.724371 0.98152,0.942687 0.77711,0.942687 -0.0455,0 -0.43249,-0.386953 -0.8599,-0.859896 z M 143.75148,92.176934 c 0,-0.800365 0.0496,-1.127787 0.11022,-0.727604 0.0606,0.400182 0.0606,1.055026 0,1.455208 -0.0606,0.400182 -0.11022,0.07276 -0.11022,-0.727604 z m -20.37653,-0.132292 c 0.002,-0.727604 0.0534,-0.993857 0.11419,-0.591674 0.0608,0.402182 0.0592,0.997495 -0.004,1.322917 -0.0628,0.325421 -0.11256,-0.0036 -0.11057,-0.731243 z m 50.05199,0.908439 c -0.0959,-0.155202 -0.11765,-0.338931 -0.0483,-0.408286 0.0694,-0.06935 0.1966,0.05763 0.28278,0.282186 0.1789,0.466225 0.0264,0.548232 -0.23448,0.1261 z m 93.27651,0.199396 c 0,-0.04554 0.38695,-0.432488 0.85989,-0.859896 l 0.8599,-0.777105 -0.77711,0.859895 c -0.72437,0.801545 -0.94268,0.981512 -0.94268,0.777106 z M 133.6937,91.780059 c 0.002,-0.727604 0.0534,-0.993857 0.11419,-0.591675 0.0608,0.402183 0.0592,0.997496 -0.004,1.322917 -0.0628,0.325422 -0.11256,-0.0036 -0.11057,-0.731242 z m 55.48683,-0.264583 c 0.49365,-0.509323 0.95709,-0.926042 1.02985,-0.926042 0.0728,0 -0.27161,0.416719 -0.76527,0.926042 -0.49365,0.509323 -0.95708,0.926041 -1.02984,0.926041 -0.0728,0 0.27161,-0.416718 0.76526,-0.926041 z m -34.32016,-1.5875 c 0.002,-0.727605 0.0534,-0.993858 0.11419,-0.591675 0.0608,0.402183 0.0592,0.997495 -0.004,1.322917 -0.0628,0.325421 -0.11256,-0.0036 -0.11058,-0.731242 z m 40.42647,0.771702 c 0.0127,-0.308227 0.0754,-0.37092 0.15985,-0.159853 0.0764,0.190994 0.067,0.419197 -0.0209,0.507118 -0.0879,0.08792 -0.15045,-0.06835 -0.13896,-0.347265 z m 28.57498,0 c 0.0127,-0.308227 0.0754,-0.37092 0.15986,-0.159853 0.0764,0.190994 0.067,0.419197 -0.0209,0.507118 -0.0879,0.08792 -0.15047,-0.06835 -0.13898,-0.347265 z m -110.8604,-0.264584 c 0.0127,-0.308226 0.0754,-0.370919 0.15985,-0.159853 0.0764,0.190995 0.067,0.419198 -0.0209,0.507119 -0.0879,0.08792 -0.15045,-0.06835 -0.13896,-0.347266 z m 52.67297,-0.903993 c 0,-0.363803 0.0601,-0.512631 0.13345,-0.33073 0.0734,0.181901 0.0734,0.479558 0,0.661459 -0.0734,0.181901 -0.13345,0.03307 -0.13345,-0.330729 z m 25.35822,-0.0999 c 0,-0.05494 0.20836,-0.2633 0.46302,-0.46302 0.41965,-0.329108 0.42901,-0.319749 0.0999,0.0999 -0.34564,0.440729 -0.56292,0.580887 -0.56292,0.363124 z m 55.58338,-0.58361 c 0.0127,-0.308226 0.0754,-0.370919 0.15986,-0.159853 0.0764,0.190995 0.067,0.419198 -0.0209,0.507119 -0.0879,0.08792 -0.15047,-0.06835 -0.13899,-0.347266 z m 14.74618,-0.290983 c 0.191,-0.07643 0.41921,-0.06703 0.50713,0.02088 0.0879,0.08792 -0.0684,0.150452 -0.34727,0.138964 -0.30824,-0.0127 -0.37092,-0.07539 -0.15986,-0.159851 z m -54.62251,-2.597386 c 8e-4,-1.455208 0.0451,-2.016765 0.0987,-1.247902 0.0536,0.768864 0.053,1.959489 -0.001,2.645834 -0.0543,0.686345 -0.0982,0.05728 -0.0975,-1.397932 z m 51.33969,1.653646 -0.50403,-0.595312 0.59531,0.504028 c 0.55944,0.473663 0.71576,0.686597 0.50404,0.686597 -0.0502,0 -0.31811,-0.267891 -0.59532,-0.595313 z m -86.04516,-0.330729 c 0.005,-0.436562 0.0647,-0.583126 0.13178,-0.325694 0.0671,0.257432 0.0627,0.614619 -0.01,0.79375 -0.0725,0.179131 -0.12736,-0.03149 -0.12197,-0.468056 z m -16.96402,-0.02204 c 0.0127,-0.308226 0.0754,-0.370919 0.15985,-0.159853 0.0764,0.190995 0.067,0.419198 -0.0209,0.507119 -0.0879,0.08792 -0.15045,-0.06835 -0.13896,-0.347266 z m 29.82742,0.238183 c 0.19099,-0.07643 0.4192,-0.06703 0.50712,0.02088 0.0879,0.08792 -0.0684,0.150453 -0.34727,0.138965 -0.30823,-0.0127 -0.37092,-0.07539 -0.15985,-0.159851 z m -19.2134,-1.274476 c 0.005,-0.436563 0.0647,-0.583126 0.13178,-0.325694 0.0671,0.257431 0.0627,0.614619 -0.01,0.79375 -0.0725,0.17913 -0.12736,-0.03149 -0.12197,-0.468056 z m 20.85051,0.561562 c 0,-0.05494 0.20836,-0.2633 0.46302,-0.463021 0.41964,-0.329107 0.429,-0.319749 0.0999,0.0999 -0.34564,0.44073 -0.56291,0.580888 -0.56291,0.363125 z m 8.79263,-0.693854 c 0,-0.509323 0.0545,-0.717682 0.121,-0.463021 0.0666,0.254662 0.0666,0.67138 0,0.926042 -0.0666,0.254661 -0.121,0.0463 -0.121,-0.463021 z m 72.0675,-0.312997 c 0.0764,-0.12364 0.24977,-0.156302 0.38523,-0.07258 0.34618,0.213948 0.30721,0.297381 -0.13893,0.297381 -0.21188,0 -0.32271,-0.10116 -0.2463,-0.224803 z M 188.1222,84.933288 c 0,-0.05494 0.20836,-0.263301 0.46302,-0.463021 0.41964,-0.329108 0.429,-0.319749 0.0999,0.0999 -0.34564,0.440729 -0.56291,0.580887 -0.56291,0.363125 z m -32.52286,-0.58361 c 0.0127,-0.308227 0.0754,-0.37092 0.15985,-0.159854 0.0764,0.190995 0.067,0.419198 -0.0209,0.507119 -0.0879,0.08792 -0.15045,-0.06835 -0.13896,-0.347265 z m 10.31875,0 c 0.0127,-0.308227 0.0754,-0.37092 0.15985,-0.159854 0.0764,0.190995 0.067,0.419198 -0.0209,0.507119 -0.0879,0.08792 -0.15045,-0.06835 -0.13896,-0.347265 z m 80.72859,-0.242536 c 0.005,-0.436563 0.0647,-0.583126 0.13179,-0.325694 0.0671,0.257431 0.0627,0.614619 -0.01,0.79375 -0.0725,0.179131 -0.12734,-0.03149 -0.12197,-0.468056 z M 172.044,83.1811 c 0,-0.509323 0.0545,-0.717682 0.121,-0.463021 0.0666,0.254662 0.0666,0.671381 0,0.926042 -0.0665,0.254661 -0.121,0.0463 -0.121,-0.463021 z m 23.35424,0.529167 c -0.0899,-0.145521 -0.0374,-0.264583 0.11667,-0.264583 0.15411,0 0.2802,0.119062 0.2802,0.264583 0,0.145521 -0.0525,0.264583 -0.11667,0.264583 -0.0642,0 -0.19026,-0.119062 -0.2802,-0.264583 z m -11.73219,-1.852084 c 0,-0.363802 0.0601,-0.51263 0.13346,-0.330729 0.0734,0.181901 0.0734,0.479558 0,0.661459 -0.0734,0.181901 -0.13346,0.03307 -0.13346,-0.33073 z M 246.90147,81.5936 c 0,-0.363802 0.0601,-0.51263 0.13346,-0.330729 0.0734,0.181901 0.0734,0.479557 0,0.661458 -0.0734,0.181901 -0.13346,0.03307 -0.13346,-0.330729 z m 10.58334,0 c 0,-0.363802 0.0601,-0.51263 0.13345,-0.330729 0.0734,0.181901 0.0734,0.479557 0,0.661458 -0.0734,0.181901 -0.13345,0.03307 -0.13345,-0.330729 z m -50.52562,-0.661458 c 0.005,-0.436563 0.0647,-0.583126 0.13178,-0.325694 0.0671,0.257431 0.0627,0.614619 -0.01,0.79375 -0.0725,0.17913 -0.12736,-0.03149 -0.12197,-0.468056 z m -23.04944,-1.080381 c 0.0127,-0.308227 0.0754,-0.37092 0.15985,-0.159854 0.0764,0.190995 0.067,0.419198 -0.0209,0.507119 -0.0879,0.08792 -0.15046,-0.06835 -0.13897,-0.347265 z m 63.23541,0 c 0.0127,-0.308227 0.0754,-0.37092 0.15986,-0.159854 0.0764,0.190995 0.067,0.419198 -0.0209,0.507119 -0.0879,0.08792 -0.15047,-0.06835 -0.13899,-0.347265 z m -90.48749,-0.79375 c 0.0127,-0.308227 0.0754,-0.37092 0.15985,-0.159854 0.0764,0.190995 0.067,0.419198 -0.0209,0.507119 -0.0879,0.08792 -0.15045,-0.06835 -0.13896,-0.347265 z m 10.31875,-0.264584 c 0.0127,-0.308226 0.0754,-0.370919 0.15985,-0.159853 0.0764,0.190995 0.067,0.419198 -0.0209,0.507119 -0.0879,0.08792 -0.15045,-0.06835 -0.13896,-0.347266 z m 40.21667,-0.264583 c 0.0127,-0.308227 0.0754,-0.37092 0.15985,-0.159853 0.0764,0.190994 0.067,0.419197 -0.0209,0.507119 -0.0879,0.08792 -0.15045,-0.06835 -0.13896,-0.347266 z m 50.79998,-0.264583 c 0.0127,-0.308227 0.0754,-0.37092 0.15986,-0.159854 0.0764,0.190995 0.067,0.419198 -0.0209,0.507119 -0.0879,0.08792 -0.15047,-0.06835 -0.13898,-0.347265 z m -50.5354,-1.587501 c 0.0127,-0.308226 0.0754,-0.370919 0.15985,-0.159853 0.0764,0.190995 0.067,0.419198 -0.0209,0.507119 -0.0879,0.08792 -0.15045,-0.06835 -0.13896,-0.347266 z m 0.26458,-1.5875 c 0.0127,-0.308226 0.0754,-0.370919 0.15985,-0.159853 0.0764,0.190995 0.067,0.419198 -0.0209,0.507119 -0.0879,0.08792 -0.15046,-0.06835 -0.13897,-0.347266 z m -70.11458,-1.322916 c 0.0127,-0.308227 0.0754,-0.37092 0.15985,-0.159854 0.0764,0.190995 0.067,0.419198 -0.0209,0.507119 -0.0879,0.08792 -0.15045,-0.06835 -0.13896,-0.347265 z m 70.37917,0 c 0.0127,-0.308227 0.0754,-0.37092 0.15985,-0.159854 0.0764,0.190995 0.067,0.419198 -0.0209,0.507119 -0.0879,0.08792 -0.15045,-0.06835 -0.13896,-0.347265 z M 234.02741,72.0686 c 0.56837,-0.582084 1.09296,-1.058334 1.16572,-1.058334 0.0728,0 -0.33276,0.47625 -0.90114,1.058334 -0.56838,0.582083 -1.09297,1.058333 -1.16573,1.058333 -0.0728,0 0.33277,-0.47625 0.90115,-1.058333 z m -96.15516,0.374827 c 0.0127,-0.308227 0.0754,-0.37092 0.15985,-0.159853 0.0764,0.190994 0.067,0.419197 -0.0209,0.507119 -0.0879,0.08792 -0.15046,-0.06835 -0.13897,-0.347266 z m -20.37292,-0.264583 c 0.0127,-0.308227 0.0754,-0.37092 0.15986,-0.159854 0.0764,0.190995 0.067,0.419198 -0.0209,0.507119 -0.0879,0.08792 -0.15045,-0.06835 -0.13896,-0.347265 z m 122.23998,-0.17639 c 0.0614,-0.03638 0.52768,-0.423334 1.03629,-0.859896 l 0.92472,-0.79375 -0.77711,0.859896 c -0.4274,0.472942 -0.89373,0.859896 -1.03629,0.859896 -0.14253,0 -0.20897,-0.02977 -0.14761,-0.06615 z M 168.56392,71.12051 c 0.0127,-0.308226 0.0754,-0.370919 0.15985,-0.159853 0.0764,0.190995 0.067,0.419198 -0.0209,0.507119 -0.0879,0.08792 -0.15045,-0.06835 -0.13896,-0.347266 z m -50.8,-0.264583 c 0.0127,-0.308227 0.0754,-0.37092 0.15985,-0.159854 0.0764,0.190995 0.067,0.419198 -0.0209,0.507119 -0.0879,0.08792 -0.15045,-0.06835 -0.13896,-0.347265 z m 40.74583,-0.529167 c 0.0127,-0.308226 0.0754,-0.370919 0.15985,-0.159853 0.0764,0.190995 0.067,0.419198 -0.0209,0.507119 -0.0879,0.08792 -0.15046,-0.06835 -0.13897,-0.347266 z M 148.17011,70.2009 c 0,-0.154109 0.11907,-0.206613 0.26459,-0.116676 0.14552,0.08994 0.26458,0.216027 0.26458,0.2802 0,0.06417 -0.11906,0.116675 -0.26458,0.116675 -0.14552,0 -0.26459,-0.126089 -0.26459,-0.280199 z M 218.041,69.797593 c 0.0127,-0.308226 0.0754,-0.370919 0.15985,-0.159853 0.0764,0.190995 0.067,0.419198 -0.0209,0.507119 -0.0879,0.08792 -0.15046,-0.06835 -0.13897,-0.347266 z m 18.96297,0.243695 c 0.1819,-0.0734 0.47956,-0.0734 0.66146,0 0.1819,0.0734 0.0331,0.133453 -0.33073,0.133453 -0.3638,0 -0.51263,-0.06005 -0.33073,-0.133453 z M 138.40142,69.53301 c 0.0127,-0.308226 0.0754,-0.370919 0.15985,-0.159853 0.0764,0.190995 0.067,0.419198 -0.0209,0.507119 -0.0879,0.08792 -0.15045,-0.06835 -0.13896,-0.347266 z m 121.49054,0.154339 c 0.0892,-0.327821 0.74869,-0.399018 3.79047,-0.409191 l 3.68248,-0.0123 -3.56124,0.08653 c -2.41221,0.05861 -3.63522,0.190635 -3.79048,0.409192 -0.16481,0.232031 -0.19886,0.211187 -0.12123,-0.07421 z m -124.55414,-0.79375 c 0.26339,-0.291041 0.53842,-0.529166 0.61118,-0.529166 0.0728,0 -0.0832,0.238125 -0.3466,0.529166 -0.26339,0.291042 -0.53842,0.529167 -0.61118,0.529167 -0.0728,0 0.0832,-0.238125 0.3466,-0.529167 z m 20.90208,-0.529166 c 0.26339,-0.291042 0.53843,-0.529167 0.61119,-0.529167 0.0728,0 -0.0832,0.238125 -0.3466,0.529167 -0.26339,0.291041 -0.53842,0.529166 -0.61118,0.529166 -0.0728,0 0.0832,-0.238125 0.34659,-0.529166 z m 62.06569,0.110244 c 0.0127,-0.308227 0.0754,-0.37092 0.15985,-0.159854 0.0764,0.190995 0.067,0.419198 -0.0209,0.507119 -0.0879,0.08792 -0.15045,-0.06835 -0.13896,-0.347265 z M 138.7065,67.306099 c 0,-0.509323 0.0545,-0.717682 0.121,-0.463021 0.0666,0.254662 0.0666,0.671381 0,0.926042 -0.0665,0.254662 -0.121,0.0463 -0.121,-0.463021 z m 132.23028,0.132292 c 0.34176,-0.363802 0.68093,-0.661458 0.75369,-0.661458 0.0728,0 -0.14734,0.297656 -0.48911,0.661458 -0.34176,0.363802 -0.68093,0.661458 -0.75369,0.661458 -0.0728,0 0.14735,-0.297656 0.48911,-0.661458 z M 130.17845,67.206203 c 0,-0.05494 0.20836,-0.2633 0.46302,-0.463021 0.41964,-0.329107 0.429,-0.319749 0.0999,0.0999 -0.34564,0.44073 -0.56291,0.580888 -0.56291,0.363125 z m 88.39172,-0.319026 c 0.0127,-0.308227 0.0754,-0.37092 0.15985,-0.159854 0.0764,0.190995 0.067,0.419198 -0.0209,0.507119 -0.0879,0.08792 -0.15045,-0.06835 -0.13896,-0.347265 z m -67.48964,-0.21014 c 0,-0.05494 0.20836,-0.263301 0.46302,-0.463021 0.41965,-0.329108 0.429,-0.319749 0.0999,0.0999 -0.34565,0.440729 -0.56292,0.580887 -0.56292,0.363125 z m 7.67292,-0.164688 c -0.23847,-0.154109 -0.2711,-0.258098 -0.0818,-0.260532 0.17332,-0.0021 0.3887,0.115011 0.47864,0.260532 0.20302,0.328488 0.11142,0.328488 -0.39687,0 z m -40.19578,-0.418922 c 0.0127,-0.308227 0.0754,-0.37092 0.15985,-0.159854 0.0764,0.190995 0.067,0.419198 -0.0209,0.507119 -0.0879,0.08792 -0.15045,-0.06835 -0.13896,-0.347265 z m 51.06458,-0.264584 c 0.0127,-0.308226 0.0754,-0.370919 0.15985,-0.159853 0.0764,0.190995 0.067,0.419198 -0.0209,0.507119 -0.0879,0.08792 -0.15046,-0.06835 -0.13897,-0.347266 z m -37.9886,-0.374827 c 0.26339,-0.291042 0.53843,-0.529167 0.61119,-0.529167 0.0728,0 -0.0832,0.238125 -0.3466,0.529167 -0.26339,0.291042 -0.53842,0.529167 -0.61118,0.529167 -0.0728,0 0.0832,-0.238125 0.34659,-0.529167 z m 87.23179,-0.396875 c 0.005,-0.436563 0.0647,-0.583126 0.13178,-0.325694 0.0671,0.257431 0.0627,0.614619 -0.01,0.79375 -0.0725,0.179131 -0.12736,-0.03149 -0.12197,-0.468056 z m -39.47449,0.296979 c 0,-0.05494 0.20836,-0.2633 0.46302,-0.463021 0.41964,-0.329107 0.429,-0.319749 0.0999,0.0999 -0.34564,0.44073 -0.56291,0.580887 -0.56291,0.363125 z m 50.29171,-0.319027 c 0.0127,-0.308226 0.0754,-0.370919 0.15986,-0.159853 0.0764,0.190995 0.067,0.419198 -0.0209,0.507119 -0.0879,0.08792 -0.15047,-0.06835 -0.13899,-0.347266 z m -80.36953,-1.433161 c 0,-0.945885 0.048,-1.332838 0.10672,-0.859895 0.0587,0.472942 0.0587,1.246849 0,1.719791 -0.0587,0.472943 -0.10672,0.08599 -0.10672,-0.859896 z m 4.81011,-0.264583 c 1.01084,-1.018646 1.89742,-1.852083 1.97018,-1.852083 0.0728,0 -0.69476,0.833437 -1.7056,1.852083 -1.01084,1.018646 -1.89742,1.852084 -1.97018,1.852084 -0.0728,0 0.69476,-0.833438 1.7056,-1.852084 z m -35.23719,-0.529167 c 0,-0.945885 0.048,-1.332838 0.10671,-0.859895 0.0587,0.472942 0.0587,1.246849 0,1.719791 -0.0587,0.472943 -0.10671,0.08599 -0.10671,-0.859896 z m 51.05557,0.396875 c 0.002,-0.727604 0.0534,-0.993857 0.11419,-0.591674 0.0608,0.402182 0.0592,0.997495 -0.004,1.322917 -0.0628,0.325421 -0.11256,-0.0036 -0.11058,-0.731243 z m 63.29204,0.661459 c 0.26339,-0.291042 0.53842,-0.529167 0.61118,-0.529167 0.0728,0 -0.0832,0.238125 -0.3466,0.529167 -0.26339,0.291041 -0.53843,0.529167 -0.61119,0.529167 -0.0728,0 0.0832,-0.238126 0.34661,-0.529167 z m -103.56349,-0.15434 c 0.0127,-0.308226 0.0754,-0.370919 0.15985,-0.159853 0.0764,0.190995 0.067,0.419198 -0.0209,0.507119 -0.0879,0.08792 -0.15045,-0.06835 -0.13896,-0.347266 z m 62.10658,0.238184 c 0.191,-0.07643 0.4192,-0.06703 0.50712,0.02087 0.0879,0.08792 -0.0684,0.150453 -0.34726,0.138965 -0.30823,-0.0127 -0.37092,-0.07539 -0.15986,-0.159851 z m 1.32292,0 c 0.191,-0.07643 0.4192,-0.06703 0.50712,0.02087 0.0879,0.08792 -0.0683,0.150453 -0.34727,0.138965 -0.30822,-0.0127 -0.37092,-0.07539 -0.15985,-0.159851 z m -59.34935,-0.877594 c 0.26339,-0.291042 0.53842,-0.529167 0.61118,-0.529167 0.0728,0 -0.0832,0.238125 -0.3466,0.529167 -0.26339,0.291041 -0.53842,0.529166 -0.61118,0.529166 -0.0728,0 0.0832,-0.238125 0.3466,-0.529166 z m 128.79097,0.08123 c 0.25744,-0.06708 0.61462,-0.06267 0.79375,0.0098 0.17915,0.07248 -0.0315,0.127363 -0.46805,0.12197 -0.43656,-0.0054 -0.58312,-0.06469 -0.3257,-0.131773 z m 5.55122,-0.263615 c 0.25466,-0.06655 0.67138,-0.06655 0.92604,0 0.25466,0.06655 0.0463,0.121001 -0.46302,0.121001 -0.50932,0 -0.71768,-0.05445 -0.46302,-0.121001 z m -37.85,-0.743657 c 0.005,-0.436562 0.0647,-0.583126 0.13179,-0.325694 0.0671,0.257432 0.0627,0.614619 -0.01,0.79375 -0.0725,0.179131 -0.12734,-0.03149 -0.12197,-0.468056 z m 40.64466,0.480719 c 0.191,-0.07643 0.41921,-0.06703 0.50713,0.02088 0.0879,0.08792 -0.0684,0.150452 -0.34727,0.138964 -0.30824,-0.0127 -0.37092,-0.07539 -0.15986,-0.159851 z m 2.051,-0.27087 c -0.14359,-0.377084 -0.11319,-0.407474 0.14811,-0.148114 0.18082,0.179478 0.26212,0.39297 0.18066,0.474433 -0.0815,0.08146 -0.22942,-0.06538 -0.32877,-0.326319 z M 182.56595,62.17912 c 0,-0.05494 0.20836,-0.2633 0.46302,-0.463021 0.41964,-0.329108 0.429,-0.319749 0.0999,0.0999 -0.34564,0.44073 -0.56291,0.580887 -0.56291,0.363125 z m 36.28969,-0.429271 c 0,-0.363802 0.0601,-0.51263 0.13345,-0.330729 0.0734,0.181901 0.0734,0.479557 0,0.661458 -0.0734,0.181901 -0.13345,0.03307 -0.13345,-0.330729 z m 27.00711,-0.79375 c 0,-0.509323 0.0545,-0.717682 0.12099,-0.463021 0.0666,0.254662 0.0666,0.67138 0,0.926042 -0.0665,0.254661 -0.12099,0.0463 -0.12099,-0.463021 z m -116.19258,0.110244 c 0.0127,-0.308226 0.0754,-0.370919 0.15985,-0.159853 0.0764,0.190994 0.067,0.419198 -0.0209,0.507119 -0.0879,0.08792 -0.15045,-0.06835 -0.13896,-0.347266 z m 6.06453,0.319027 c 0,-0.05494 0.20836,-0.263301 0.46302,-0.463021 0.41964,-0.329108 0.429,-0.319749 0.0999,0.0999 -0.34564,0.44073 -0.56291,0.580887 -0.56291,0.363125 z m -17.3132,-1.145464 c -0.14359,-0.377084 -0.1132,-0.407474 0.14811,-0.148113 0.18082,0.179477 0.26212,0.392969 0.18065,0.474432 -0.0815,0.08146 -0.2294,-0.06538 -0.32876,-0.326319 z m 118.11945,0.351714 c 0,-0.05494 0.20836,-0.263301 0.46302,-0.463021 0.41965,-0.329108 0.42899,-0.319749 0.0999,0.0999 -0.34565,0.440729 -0.56292,0.580887 -0.56292,0.363125 z m -18.39942,-0.711457 c -0.0959,-0.155202 -0.11766,-0.338931 -0.0483,-0.408287 0.0693,-0.06936 0.1966,0.05763 0.28277,0.282186 0.17891,0.466225 0.0264,0.548233 -0.23447,0.126101 z m 10.95732,-0.710002 c -0.32909,-0.419645 -0.31975,-0.429003 0.0999,-0.0999 0.25466,0.199721 0.46302,0.40808 0.46302,0.463021 0,0.217763 -0.21728,0.07761 -0.56293,-0.363125 z M 127.7972,58.574849 c -0.23847,-0.154109 -0.2711,-0.258099 -0.0818,-0.260533 0.17332,-0.0021 0.3887,0.115012 0.47864,0.260533 0.20302,0.328488 0.11142,0.328488 -0.39687,0 z m 123.84587,-0.15434 c 0.0127,-0.308226 0.0754,-0.370919 0.15986,-0.159853 0.0764,0.190995 0.067,0.419198 -0.0209,0.507119 -0.0879,0.08792 -0.15047,-0.06835 -0.13898,-0.347266 z M 122.7205,58.129526 c 0.191,-0.07643 0.4192,-0.06703 0.50712,0.02088 0.0879,0.08792 -0.0683,0.150452 -0.34726,0.138964 -0.30823,-0.0127 -0.37092,-0.07539 -0.15986,-0.159851 z m 84.66667,0 c 0.191,-0.07643 0.4192,-0.06703 0.50712,0.02088 0.0879,0.08792 -0.0684,0.150452 -0.34727,0.138964 -0.30822,-0.0127 -0.37092,-0.07539 -0.15985,-0.159851 z m 15.875,0 c 0.191,-0.07643 0.41921,-0.06703 0.50713,0.02088 0.0879,0.08792 -0.0684,0.150452 -0.34727,0.138964 -0.30824,-0.0127 -0.37092,-0.07539 -0.15986,-0.159851 z m 3.43958,0 c 0.19101,-0.07643 0.41921,-0.06703 0.50713,0.02088 0.0879,0.08792 -0.0684,0.150452 -0.34726,0.138964 -0.30824,-0.0127 -0.37092,-0.07539 -0.15987,-0.159851 z M 124.68834,57.863297 c 0.25466,-0.06655 0.67138,-0.06655 0.92604,0 0.25466,0.06655 0.0463,0.121002 -0.46302,0.121002 -0.50932,0 -0.71768,-0.05445 -0.46302,-0.121002 z m 18.78906,-0.272058 c 0.40218,-0.06082 0.99749,-0.05919 1.32291,0.0036 0.32543,0.0628 -0.004,0.112559 -0.73124,0.110575 -0.7276,-0.0021 -0.99386,-0.05337 -0.59167,-0.114186 z m 20.6375,0 c 0.40218,-0.06082 0.99749,-0.05919 1.32291,0.0036 0.32543,0.0628 -0.004,0.112559 -0.73124,0.110575 -0.7276,-0.0021 -0.99386,-0.05337 -0.59167,-0.114186 z m 28.97297,-0.0019 c 0.47555,-0.05889 1.18993,-0.05767 1.5875,0.0027 0.39758,0.06037 0.009,0.10855 -0.86463,0.107066 -0.87313,-0.0016 -1.19842,-0.05088 -0.72287,-0.109766 z m 49.07547,0.0094 c 0.25466,-0.06655 0.67138,-0.06655 0.92604,0 0.25467,0.06655 0.0463,0.121002 -0.46302,0.121002 -0.50932,0 -0.71768,-0.05445 -0.46302,-0.121002 z m 9.76522,-0.875988 c 0,-0.363802 0.0601,-0.51263 0.13345,-0.330729 0.0734,0.181901 0.0734,0.479558 0,0.661459 -0.0734,0.181901 -0.13345,0.03307 -0.13345,-0.33073 z m 11.90625,-3.96875 c 0,-0.363802 0.0601,-0.51263 0.13345,-0.330729 0.0734,0.181901 0.0734,0.479557 0,0.661458 -0.0734,0.181901 -0.13345,0.03307 -0.13345,-0.330729 z m -5.65944,-3.895918 c 0.47556,-0.05889 1.18994,-0.05767 1.5875,0.0027 0.39759,0.06037 0.008,0.108551 -0.86463,0.107066 -0.87313,-0.0015 -1.1984,-0.05088 -0.72287,-0.109766 z"
         id="path984" />
      <path
         style="fill:#ec1b23;stroke-width:0.264583"
         d="m -22.934238,125.97746 c 0.171286,-4.06701 0.499325,-5.64141 1.70999,-8.20694 2.160269,-4.57784 6.062697,-7.81472 11.3058177,-9.37766 1.5150068,-0.45161 8.0136022,-0.47634 142.3113603,-0.54156 l 140.72386,-0.0683 -0.11824,4.16938 c -0.10303,3.63311 -0.20678,4.41899 -0.80669,6.11 -0.98004,2.76253 -2.17099,4.64287 -4.31316,6.80992 -2.05362,2.07747 -4.98075,3.73351 -7.91157,4.476 -1.39655,0.35381 -17.67581,0.39951 -142.31855,0.39951 H -23.093028 Z M 117.21386,95.965349 c -1.51197,-0.25999 -2.39851,-0.695504 -3.14389,-1.544447 -1.16053,-1.321779 -1.26325,-2.633824 -0.44493,-5.683552 4.71027,-17.55429 6.37928,-27.570182 4.78809,-28.733695 -0.35755,-0.261441 -0.31419,-0.34326 0.31783,-0.599702 1.80862,-0.733859 3.54327,-1.121011 5.62665,-1.255798 2.0044,-0.129675 2.37844,-0.07842 3.43959,0.471326 0.69444,0.359768 1.35368,0.947616 1.58189,1.410576 0.57789,1.172337 0.44542,3.846841 -0.34032,6.870669 -0.37692,1.450536 -0.6547,2.667945 -0.61728,2.705357 0.0374,0.03741 1.05545,-1.17683 2.2623,-2.698311 4.83213,-6.091841 9.26771,-9.126673 13.33914,-9.126673 4.63894,0 6.18354,3.356491 4.68993,10.191391 -0.43592,1.994805 -0.51491,2.953223 -0.20494,2.486562 2.54728,-3.834837 7.39999,-8.978049 10.08836,-10.692279 4.43862,-2.830272 9.13833,-2.660547 10.67435,0.385493 0.93155,1.84731 0.79777,3.901662 -0.74151,11.387167 -3.0911,15.031985 -3.3126,16.759072 -2.50019,19.494758 0.21798,0.734001 0.64435,1.649865 0.94749,2.035251 l 0.55118,0.700702 -1.95616,0.928973 c -4.40307,2.091008 -8.36327,1.580745 -9.92713,-1.279088 -0.36554,-0.66847 -0.45864,-1.457561 -0.4432,-3.756637 0.0202,-3.005299 0.29374,-4.55784 3.05076,-17.314093 1.37303,-6.352784 1.26693,-7.030641 -0.8072,-5.156788 -2.41523,2.182016 -6.88272,9.03091 -10.37239,15.901427 -3.21224,6.324299 -3.9886,9.139365 -3.0282,10.980154 0.34834,0.667668 0.33006,0.721564 -0.33236,0.97981 -2.58008,1.005851 -6.44817,1.231638 -7.92258,0.462457 -2.15763,-1.125606 -2.39818,-3.26218 -0.99559,-8.842989 2.02661,-8.06377 4.11615,-18.032773 4.11615,-19.637818 0,-0.989676 -0.81912,-0.793758 -2.21979,0.530942 -2.74026,2.591623 -6.43072,8.332611 -10.1117,15.730047 -3.16708,6.364676 -3.75959,8.540755 -2.89135,10.618764 0.38054,0.910738 0.37469,0.932526 -0.32094,1.197007 -1.50792,0.573309 -4.97946,1.054669 -6.15206,0.853037 z m 59.00396,-0.538824 c -2.29531,-1.203079 -3.46471,-3.470394 -3.98133,-7.719303 -1.24665,-10.253052 5.95055,-24.165241 14.64906,-28.31666 4.28351,-2.044332 8.81719,-2.168753 12.91853,-0.354534 l 1.22811,0.543253 1.41636,-0.700653 c 1.19042,-0.588889 1.754,-0.697762 3.53302,-0.682522 1.93859,0.01662 4.18653,0.443523 6.00765,1.140947 l 0.71599,0.274195 -0.75298,1.664613 c -4.43613,9.806954 -6.6971,26.51907 -4.26336,31.512866 l 0.49158,1.008666 -1.03818,0.752055 c -2.07532,1.503354 -6.29175,1.904896 -8.54562,0.813821 -2.62074,-1.26868 -3.57006,-3.922205 -3.15115,-8.80807 0.25836,-3.013276 0.22469,-3.557267 -0.17594,-2.842728 -1.01686,1.813594 -4.01829,5.606127 -6.08775,7.692327 -2.01807,2.034392 -2.92995,2.739938 -4.61642,3.571875 -1.89621,0.935403 -2.33578,1.045266 -4.49792,1.124164 -2.21572,0.08085 -2.50584,0.03004 -3.84965,-0.674312 z m 9.98108,-8.34282 c 2.43464,-1.725669 8.68097,-10.746887 11.7652,-16.991821 l 1.13831,-2.30483 -1.48045,-1.381543 c -4.49964,-4.199036 -7.75662,-3.192455 -10.81963,3.343844 -2.53272,5.404667 -4.00109,14.856741 -2.65178,17.069766 0.6206,1.017866 0.92932,1.057744 2.04835,0.264584 z m 30.52801,8.793977 c -1.66971,-0.248599 -2.62891,-0.873918 -3.27045,-2.132055 -0.68625,-1.345821 -0.59004,-2.220013 0.83906,-7.623826 4.18832,-15.837144 5.44243,-23.090062 4.41562,-25.537055 -0.23836,-0.568048 -0.40019,-1.066015 -0.3596,-1.106596 0.0406,-0.04058 1.08394,-0.343636 2.31856,-0.673458 2.85676,-0.763148 6.3323,-0.827746 7.61431,-0.141523 1.19753,0.640999 1.90659,1.894592 1.8955,3.351263 -0.005,0.654844 -0.34914,2.678907 -0.7648,4.497917 -0.41569,1.819011 -0.72665,3.339074 -0.69104,3.37792 0.0356,0.03885 1.00394,-1.21131 2.15183,-2.778125 3.86286,-5.272585 8.17298,-8.966809 10.80831,-9.263849 2.80228,-0.315857 4.11742,0.677852 4.11303,3.107804 -0.006,3.008194 -2.23391,7.554929 -4.9742,10.148909 l -0.79888,0.756201 -0.74941,-0.823003 c -0.41219,-0.452652 -1.10662,-0.889108 -1.54318,-0.969907 -2.82916,-0.523605 -8.35395,6.934015 -12.57755,16.977824 -1.20891,2.874815 -1.5925,5.271511 -1.07931,6.743642 0.37279,1.069401 0.21815,1.233832 -1.5852,1.685491 -2.01204,0.503926 -4.10106,0.649812 -5.7626,0.402426 z m 35.34421,-0.341802 c -2.26248,-0.792609 -3.91608,-2.331871 -4.73615,-4.408704 -1.39449,-3.53154 -0.46765,-11.507042 3.06033,-26.334618 1.57128,-6.603874 1.75606,-7.71637 1.75606,-10.573056 0,-1.778602 -0.11054,-2.563892 -0.42386,-3.011225 -0.23312,-0.332832 -0.3696,-0.659425 -0.30324,-0.725762 0.43699,-0.437007 5.56874,-1.432667 7.3841,-1.432667 2.50915,0 3.71621,0.443193 4.46037,1.637725 0.75819,1.21704 0.60738,2.835194 -0.74567,8.001171 -0.6072,2.318213 -1.03606,4.282745 -0.95306,4.365625 0.401,0.400381 9.73622,-0.161496 11.04829,-0.664985 0.61544,-0.236164 0.57308,0.824026 -0.10533,2.637266 -0.56084,1.498987 -2.01793,3.082939 -3.37595,3.669904 -0.39257,0.169677 -2.6184,0.372723 -4.94626,0.451212 l -4.23248,0.142708 -0.7265,3.307292 c -1.72423,7.84932 -2.22628,12.573057 -1.53074,14.402447 0.34038,0.895302 1.75821,1.734915 2.93176,1.736148 1.31477,0.0013 3.88917,-0.916316 5.57456,-1.987174 1.60378,-1.018996 1.8364,-0.928124 2.34916,0.917609 0.58513,2.106266 0.14036,3.581236 -1.53612,5.093991 -2.36535,2.134373 -5.35567,3.134128 -9.84194,3.290449 -2.97924,0.103809 -3.48584,0.05269 -5.10733,-0.515356 z"
         id="path982" />
      <path
         style="fill:#0059aa;stroke-width:0.264583"
         d="m 84.273237,96.018144 c -6.405681,-1.028242 -10.875915,-4.266898 -13.53171,-9.803643 -1.340974,-2.795636 -1.751353,-5.160696 -1.605232,-9.251109 0.145232,-4.065527 0.547624,-5.723531 2.212591,-9.116691 2.812286,-5.731364 8.185669,-9.169686 15.152191,-9.695588 2.949871,-0.222686 5.564007,0.21998 7.894444,1.336813 l 1.815066,0.869847 0.955376,-0.875541 c 2.499778,-2.290874 7.200477,-1.659726 9.108127,1.22292 1.31438,1.986167 1.40617,3.061984 1.41064,16.53338 0.004,13.484167 -0.0842,14.493659 -1.45678,16.577422 -1.85163,2.811108 -6.443112,3.371112 -9.086734,1.108268 L 96.0719,94.00893 94.43818,94.833629 c -2.976147,1.502354 -5.994046,1.854028 -10.164943,1.184515 z m 7.251669,-9.557441 c 2.004671,-1.18419 2.995168,-4.054538 3.002486,-8.700868 0.0052,-3.299987 -0.383357,-5.543407 -1.260658,-7.278736 -0.716695,-1.41764 -1.273394,-1.958128 -2.578536,-2.50345 -2.909173,-1.21553 -6.483221,0.396375 -7.832297,3.532391 -1.228016,2.854595 -1.366194,7.525079 -0.321908,10.880385 0.780886,2.508985 1.975496,3.781441 4.251074,4.528082 1.067618,0.350295 3.822234,0.08424 4.739839,-0.457804 z m -110.107515,9.019051 c -1.466103,-0.538456 -2.779993,-1.64261 -3.585911,-3.013493 -0.606535,-1.031729 -0.709351,-1.495216 -0.680457,-3.067452 0.03001,-1.632837 0.380255,-2.838696 2.958705,-10.186459 10.1840825,-29.021406 10.7519736,-30.530283 11.8711399,-31.541458 2.11346,-1.909529 8.42563783,-2.525481 12.86995,-1.255869 1.3234696,0.378078 2.9004472,1.826109 3.5927982,3.29902 0.4875557,1.03723 10.7332729,29.870216 12.7524589,35.887333 1.279144,3.811821 1.026258,6.054861 -0.915479,8.120098 -1.436476,1.527836 -2.666741,2.018175 -5.063609,2.018175 -2.443727,0 -3.887796,-0.590306 -4.994924,-2.041824 C 9.6352333,92.928451 7.6769489,87.534883 7.6765256,86.68683 7.6763986,86.429498 5.890252,86.3561 -0.37180849,86.3561 H -8.4199758 l -1.0112481,3.241146 c -0.8943631,2.866517 -1.1491621,3.383357 -2.2044341,4.471499 -1.71109,1.764382 -4.462936,2.323314 -6.946951,1.411009 z M 4.4331175,75.177454 C 4.3644449,74.995553 3.2582405,71.421767 1.974887,67.23571 0.69153342,63.049649 -0.43556249,59.715899 -0.52977268,59.827376 c -0.1793875,0.212264 -4.77095352,15.137332 -4.76301602,15.48237 0.00238,0.10914 2.2199601,0.198437 4.92766623,0.198437 3.82868227,0 4.89534207,-0.07352 4.79823997,-0.330729 z M 30.758315,95.527916 c -1.449681,-0.525756 -2.733746,-1.755452 -3.46784,-3.32101 L 26.59407,90.721726 V 70.613391 50.505057 l 0.626943,-1.386852 c 0.748996,-1.656843 2.263228,-3.102715 3.653809,-3.488857 2.725785,-0.756908 5.718913,0.108588 7.055572,2.040198 1.53824,2.222916 1.495968,1.578752 1.495968,22.796798 0,22.273943 0.07287,21.447128 -2.079869,23.598942 -1.723585,1.72284 -4.295994,2.293938 -6.588178,1.46263 z m 21.895502,0.121815 C 50.646598,94.991214 49.545373,94.021755 48.709012,92.176934 48.192767,91.03822 48.168981,90.488879 48.163422,79.577165 l -0.0058,-11.409143 -1.291037,-0.171262 c -1.51978,-0.201605 -2.818225,-1.006081 -3.687173,-2.284458 -0.514389,-0.756761 -0.605258,-1.167839 -0.512783,-2.319779 0.06736,-0.839124 0.325276,-1.687148 0.643755,-2.116667 0.780473,-1.052597 2.422295,-1.897854 3.696189,-1.902905 l 1.097907,-0.0044 0.09694,-3.373438 c 0.0868,-3.020834 0.174043,-3.539369 0.834644,-4.960938 0.933498,-2.008821 2.025312,-3.150001 3.9502,-4.128802 2.415308,-1.228177 4.630384,-1.637072 8.003652,-1.477444 5.846633,0.276671 8.600255,2.02113 8.597969,5.446936 -0.0019,2.748997 -1.464017,3.973922 -4.340133,3.635891 -1.584526,-0.18623 -3.151955,0.180038 -3.878141,0.906225 -0.401238,0.401237 -0.511987,0.884001 -0.511987,2.231778 v 1.719792 l 2.315104,0.0058 c 1.708312,0.0043 2.6084,0.138951 3.434117,0.513784 3.020735,1.371253 3.200078,5.941732 0.292336,7.450135 -0.870149,0.451395 -1.734024,0.622464 -3.581363,0.709205 l -2.434601,0.114316 -0.07894,11.54452 -0.07894,11.544512 -0.747236,1.521706 c -0.993875,2.023973 -2.388179,2.880231 -4.894958,3.006056 -0.971376,0.04875 -2.064565,-0.0093 -2.429309,-0.128923 z"
         id="path980" />
    </g>
  </g>
</svg>
