<?xml version="1.0" encoding="UTF-8" standalone="no"?>
<svg
   width="560mm"
   height="150mm"
   viewBox="0 0 560 150"
   version="1.1"
   id="svg8"
   sodipodi:docname="DP_Admin.svg"
   inkscape:version="1.1 (1:1.1+202105261517+ce6663b3b7)"
   xmlns:inkscape="http://www.inkscape.org/namespaces/inkscape"
   xmlns:sodipodi="http://sodipodi.sourceforge.net/DTD/sodipodi-0.dtd"
   xmlns:xlink="http://www.w3.org/1999/xlink"
   xmlns="http://www.w3.org/2000/svg"
   xmlns:svg="http://www.w3.org/2000/svg"
   xmlns:rdf="http://www.w3.org/1999/02/22-rdf-syntax-ns#"
   xmlns:cc="http://creativecommons.org/ns#"
   xmlns:dc="http://purl.org/dc/elements/1.1/">
  <sodipodi:namedview
     pagecolor="#ffffff"
     bordercolor="#666666"
     borderopacity="1"
     objecttolerance="10"
     gridtolerance="10"
     guidetolerance="10"
     inkscape:pageopacity="0"
     inkscape:pageshadow="2"
     inkscape:window-width="1366"
     inkscape:window-height="722"
     id="namedview18"
     showgrid="false"
     inkscape:zoom="0.27320469"
     inkscape:cx="1295.7318"
     inkscape:cy="164.71167"
     inkscape:window-x="0"
     inkscape:window-y="24"
     inkscape:window-maximized="1"
     inkscape:current-layer="layer1"
     inkscape:document-rotation="0"
     inkscape:pagecheckerboard="true"
     inkscape:document-units="mm"
     borderlayer="true" />
  <defs
     id="defs2">
    <linearGradient
       inkscape:collect="always"
       id="linearGradient22662">
      <stop
         style="stop-color:#505c71;stop-opacity:0.29891759"
         offset="0"
         id="stop22658" />
      <stop
         style="stop-color:#e2e5ea;stop-opacity:1"
         offset="1"
         id="stop22660" />
    </linearGradient>
    <linearGradient
       inkscape:collect="always"
       xlink:href="#linearGradient22662"
       id="linearGradient22664"
       x1="351.8002"
       y1="281.01422"
       x2="329.97333"
       y2="93.317581"
       gradientUnits="userSpaceOnUse" />
  </defs>
  <metadata
     id="metadata5">
    <rdf:RDF>
      <cc:Work
         rdf:about="">
        <dc:format>image/svg+xml</dc:format>
        <dc:type
           rdf:resource="http://purl.org/dc/dcmitype/StillImage" />
      </cc:Work>
    </rdf:RDF>
  </metadata>
  <g
     id="layer1">
    <g
       id="g22576">
      <path
         id="rect852"
         style="fill:#e2e5ea;fill-opacity:1;stroke-width:0.561043"
         d="m 23.416032,0.3248846 h 37.357257 c 13.595231,0 54.384591,10.8389454 54.384591,49.4746334 v 34.477346 c 0,33.554466 -26.140328,63.147996 -41.542716,63.147996 H 17.592392 c -13.5952465,0 -17.14424139,-5.62323 -17.14424139,-13.25088 V 14.82433 C 0.44815061,1.2290991 7.110134,0.3248846 23.416032,0.3248846 Z"
         sodipodi:nodetypes="sssssssss" />
      <g
         id="g874"
         transform="matrix(0.96167939,0,0,0.96167939,6.1694389,4.4946397)">
        <path
           style="fill:#242b70;stroke-width:0.284029"
           d="m 2.0079272,142.84576 c 0,-133.1207499 0,3.12721 0.00344,-134.5328185 0.469128,-6.4258705 6.1164564,-7.31896863 8.6076398,-7.3125964 4.038375,0.010306 25.445442,0.011594 40.109489,-0.0104129 9.661851,-0.0144707 21.001116,4.92643 28.967485,9.5039478 3.91907,2.306493 7.012062,4.714838 10.652549,8.29456 2.596672,2.553323 3.351222,3.490336 4.118429,5.114269 1.754824,3.714451 1.125873,7.672102 -1.674784,10.538383 -2.726233,2.790126 -6.184289,4.35697 -9.638417,4.367179 -3.941345,0.01159 -8.94864,-1.937319 -13.452175,-5.235929 -3.240792,-2.373717 -5.349484,-3.600659 -8.238362,-4.793508 -4.974403,-2.053997 -9.963997,-2.91812 -15.336077,-2.655982 -9.087734,0.44344 -17.040879,3.959615 -23.524986,10.400642 -8.550372,8.493563 -12.237362,20.824868 -9.729255,32.5399 1.462038,6.828978 4.642983,12.71258 9.532021,17.630796 6.928351,6.969702 15.6333,10.62875 25.284384,10.628084 13.609518,-8.48e-4 24.449875,-6.590865 32.790079,-19.933329 1.006973,-1.610944 2.935865,-5.293533 4.286431,-8.183538 4.117259,-8.810352 7.936687,-15.067252 11.207547,-18.359969 2.65112,-2.668842 8.663905,-6.337551 11.590825,-7.072156 l 0.78754,-0.197663 c 0.0373,10.764718 0.11985,22.011061 -0.17439,32.285611 -0.35912,11.258065 -1.04225,12.854141 -1.67698,15.924525 -2.19693,10.627325 -6.48058,20.128475 -13.051173,28.947585 -6.320344,8.48322 -13.163309,14.5155 -20.481264,18.05486 -2.979953,1.44126 -8.752534,3.9989 -12.39885,4.00234 z"
           id="path865" />
        <path
           style="fill:#ca4e9c;stroke-width:0.284029"
           d="M 41.999886,89.222147 C 36.31619,87.973273 31.654247,85.44158 27.656844,81.433045 15.886957,69.630405 16.991779,50.095901 30.011464,39.800741 c 5.633243,-4.454423 11.674477,-6.360922 19.072623,-6.018959 12.551093,0.58015 23.049917,9.486237 25.904046,21.974251 0.682025,2.984151 0.695604,8.510053 0.02866,11.645588 -0.993082,4.668499 -3.628249,9.809993 -6.854505,13.373875 -2.578358,2.84817 -6.913247,5.740107 -10.763549,7.180687 -4.298293,1.608195 -11.242929,2.179124 -15.398812,1.265964 z"
           id="path871" />
      </g>
    </g>
    <g
       id="g22656"
       style="fill-opacity:1;fill:url(#linearGradient22664)">
      <g
         aria-label="ADMIN"
         id="text3074"
         style="font-size:111.867px;line-height:1.25;fill:url(#linearGradient22664);fill-opacity:1.0;stroke-width:2.79668"
         transform="matrix(0.86805561,0,0,0.86805561,18.868102,14.528757)">
        <g
           aria-label="ADMIN"
           id="text2178"
           style="font-size:132.958px;stroke-width:9.29607;fill-opacity:1.0;fill:url(#linearGradient22664)">
          <path
             d="m 259.32335,95.756066 h -38.69077 l -6.6479,18.880034 h -15.822 l 33.10654,-92.538762 h 17.55045 L 281.92621,114.6361 H 265.97125 Z M 255.0687,83.390973 240.04444,40.445541 224.88723,83.390973 Z"
             style="font-weight:500;font-family:Poppins;-inkscape-font-specification:'Poppins Medium';fill-opacity:1.0;fill:url(#linearGradient22664)"
             id="path22502" />
          <path
             d="m 326.46695,22.230296 q 14.75834,0 25.79385,5.717194 11.16847,5.584235 17.15158,16.220875 6.11607,10.503681 6.11607,24.597228 0,14.093548 -6.11607,24.464271 -5.98311,10.370726 -17.15158,15.954956 -11.03551,5.45128 -25.79385,5.45128 H 296.28549 V 22.230296 Z m 0,80.040714 q 16.22088,0 24.86315,-8.77523 8.64226,-8.775228 8.64226,-24.730187 0,-16.087917 -8.64226,-25.12906 -8.64227,-9.041144 -24.86315,-9.041144 H 311.4427 v 67.675621 z"
             style="font-weight:500;font-family:Poppins;-inkscape-font-specification:'Poppins Medium';fill-opacity:1.0;fill:url(#linearGradient22664)"
             id="path22504" />
          <path
             d="M 487.8779,22.230296 V 114.6361 H 472.72068 V 51.348096 L 444.53359,114.6361 H 434.02991 L 405.70986,51.348096 V 114.6361 H 390.55264 V 22.230296 h 16.35384 l 32.44175,72.462106 32.30879,-72.462106 z"
             style="font-weight:500;font-family:Poppins;-inkscape-font-specification:'Poppins Medium';fill-opacity:1.0;fill:url(#linearGradient22664)"
             id="path22506" />
          <path
             d="M 522.97881,22.230296 V 114.6361 H 507.8216 V 22.230296 Z"
             style="font-weight:500;font-family:Poppins;-inkscape-font-specification:'Poppins Medium';fill-opacity:1.0;fill:url(#linearGradient22664)"
             id="path22508" />
          <path
             d="M 618.8415,114.6361 H 603.68429 L 558.0797,45.630903 V 114.6361 H 542.92249 V 22.097338 h 15.15721 l 45.60459,68.87224 v -68.87224 h 15.15721 z"
             style="font-weight:500;font-family:Poppins;-inkscape-font-specification:'Poppins Medium';fill-opacity:1.0;fill:url(#linearGradient22664)"
             id="path22510" />
        </g>
      </g>
    </g>
    <rect
       style="fill:#e2e5ea;fill-opacity:1;stroke-width:0.264583"
       id="rect22490"
       width="5.4504213"
       height="135.32164"
       x="150.69516"
       y="6.2140522" />
  </g>
</svg>
