<?xml version="1.0" encoding="UTF-8" standalone="no"?>
<svg
   width="115mm"
   height="150mm"
   viewBox="0 0 115 150"
   version="1.1"
   id="svg8"
   sodipodi:docname="logo_dark.svg"
   inkscape:version="1.1.1 (3bf5ae0d25, 2021-09-20)"
   xmlns:inkscape="http://www.inkscape.org/namespaces/inkscape"
   xmlns:sodipodi="http://sodipodi.sourceforge.net/DTD/sodipodi-0.dtd"
   xmlns="http://www.w3.org/2000/svg"
   xmlns:svg="http://www.w3.org/2000/svg"
   xmlns:rdf="http://www.w3.org/1999/02/22-rdf-syntax-ns#"
   xmlns:cc="http://creativecommons.org/ns#"
   xmlns:dc="http://purl.org/dc/elements/1.1/">
  <sodipodi:namedview
     pagecolor="#ffffff"
     bordercolor="#666666"
     borderopacity="1"
     objecttolerance="10"
     gridtolerance="10"
     guidetolerance="10"
     inkscape:pageopacity="0"
     inkscape:pageshadow="2"
     inkscape:window-width="1366"
     inkscape:window-height="716"
     id="namedview18"
     showgrid="false"
     inkscape:zoom="0.27320469"
     inkscape:cx="979.11935"
     inkscape:cy="499.62539"
     inkscape:window-x="0"
     inkscape:window-y="0"
     inkscape:window-maximized="1"
     inkscape:current-layer="svg8"
     inkscape:document-rotation="0"
     inkscape:pagecheckerboard="0"
     inkscape:document-units="mm" />
  <defs
     id="defs2" />
  <metadata
     id="metadata5">
    <rdf:RDF>
      <cc:Work
         rdf:about="">
        <dc:format>image/svg+xml</dc:format>
        <dc:type
           rdf:resource="http://purl.org/dc/dcmitype/StillImage" />
      </cc:Work>
    </rdf:RDF>
  </metadata>
  <g
     id="layer1">
    <path
       id="rect852"
       style="fill:#e2e5ea;fill-opacity:1;stroke-width:0.561043"
       d="m 23.416032,0.3248846 h 37.357257 c 13.595231,0 54.515421,4.239336 53.744931,47.4831814 l -0.92399,51.85939 C 113.10621,127.05749 87.317994,149.68352 71.915606,149.68352 H 17.592392 c -13.5952465,0 -17.14424139,-10.94489 -17.14424139,-24.54013 V 19.740648 C 0.44815061,6.145417 7.110134,0.3248846 23.416032,0.3248846 Z"
       sodipodi:nodetypes="sssssssss" />
    <g
       id="g874"
       transform="matrix(0.96167939,0,0,0.96167939,6.1694389,4.4946397)">
      <path
         style="fill:#242b70;stroke-width:0.284029"
         d="m 2.0079272,142.84576 c 0,-133.1207499 0,3.12721 0.00344,-134.5328185 0.469128,-6.4258705 6.1164564,-7.31896863 8.6076398,-7.3125964 4.038375,0.010306 25.445442,0.011594 40.109489,-0.0104129 9.661851,-0.0144707 21.001116,4.92643 28.967485,9.5039478 3.91907,2.306493 7.012062,4.714838 10.652549,8.29456 2.596672,2.553323 3.351222,3.490336 4.118429,5.114269 1.754824,3.714451 1.125873,7.672102 -1.674784,10.538383 -2.726233,2.790126 -6.184289,4.35697 -9.638417,4.367179 -3.941345,0.01159 -8.94864,-1.937319 -13.452175,-5.235929 -3.240792,-2.373717 -5.349484,-3.600659 -8.238362,-4.793508 -4.974403,-2.053997 -9.963997,-2.91812 -15.336077,-2.655982 -9.087734,0.44344 -17.040879,3.959615 -23.524986,10.400642 -8.550372,8.493563 -12.237362,20.824868 -9.729255,32.5399 1.462038,6.828978 4.642983,12.71258 9.532021,17.630796 6.928351,6.969702 15.6333,10.62875 25.284384,10.628084 13.609518,-8.48e-4 24.449875,-6.590865 32.790079,-19.933329 1.006973,-1.610944 2.935865,-5.293533 4.286431,-8.183538 4.117259,-8.810352 7.936687,-15.067252 11.207547,-18.359969 2.65112,-2.668842 8.663905,-6.337551 11.590825,-7.072156 l 0.78754,-0.197663 c 0.0373,10.764718 0.11985,22.011061 -0.17439,32.285611 -0.35912,11.258065 -1.04225,12.854141 -1.67698,15.924525 -2.19693,10.627325 -6.48058,20.128475 -13.051173,28.947585 -6.320344,8.48322 -13.163309,14.5155 -20.481264,18.05486 -2.979953,1.44126 -8.752534,3.9989 -12.39885,4.00234 z"
         id="path865" />
      <path
         style="fill:#ca4e9c;stroke-width:0.284029"
         d="M 41.999886,89.222147 C 36.31619,87.973273 31.654247,85.44158 27.656844,81.433045 15.886957,69.630405 16.991779,50.095901 30.011464,39.800741 c 5.633243,-4.454423 11.674477,-6.360922 19.072623,-6.018959 12.551093,0.58015 23.049917,9.486237 25.904046,21.974251 0.682025,2.984151 0.695604,8.510053 0.02866,11.645588 -0.993082,4.668499 -3.628249,9.809993 -6.854505,13.373875 -2.578358,2.84817 -6.913247,5.740107 -10.763549,7.180687 -4.298293,1.608195 -11.242929,2.179124 -15.398812,1.265964 z"
         id="path871" />
    </g>
  </g>
</svg>
