<?xml version="1.0" encoding="UTF-8" standalone="no"?>
<svg
   width="650mm"
   height="150mm"
   viewBox="0 0 650 150"
   version="1.1"
   id="svg8"
   sodipodi:docname="logo_light.svg"
   inkscape:version="1.1.1 (3bf5ae0d25, 2021-09-20)"
   xmlns:inkscape="http://www.inkscape.org/namespaces/inkscape"
   xmlns:sodipodi="http://sodipodi.sourceforge.net/DTD/sodipodi-0.dtd"
   xmlns="http://www.w3.org/2000/svg"
   xmlns:svg="http://www.w3.org/2000/svg"
   xmlns:rdf="http://www.w3.org/1999/02/22-rdf-syntax-ns#"
   xmlns:cc="http://creativecommons.org/ns#"
   xmlns:dc="http://purl.org/dc/elements/1.1/">
  <sodipodi:namedview
     pagecolor="#ffffff"
     bordercolor="#666666"
     borderopacity="1"
     objecttolerance="10"
     gridtolerance="10"
     guidetolerance="10"
     inkscape:pageopacity="0"
     inkscape:pageshadow="2"
     inkscape:window-width="1366"
     inkscape:window-height="716"
     id="namedview18"
     showgrid="false"
     inkscape:zoom="3.0909582"
     inkscape:cx="2435.976"
     inkscape:cy="320.12726"
     inkscape:window-x="0"
     inkscape:window-y="0"
     inkscape:window-maximized="1"
     inkscape:current-layer="layer1"
     inkscape:document-rotation="0"
     inkscape:pagecheckerboard="0"
     inkscape:document-units="mm" />
  <defs
     id="defs2" />
  <metadata
     id="metadata5">
    <rdf:RDF>
      <cc:Work
         rdf:about="">
        <dc:format>image/svg+xml</dc:format>
        <dc:type
           rdf:resource="http://purl.org/dc/dcmitype/StillImage" />
        <dc:title />
      </cc:Work>
    </rdf:RDF>
  </metadata>
  <g
     id="layer1">
    <path
       id="rect852"
       style="fill:#e2e5ea;fill-opacity:1;stroke-width:0.561043"
       d="m 23.838132,-0.01118987 h 37.35726 c 13.59523,0 52.820938,4.75263197 52.820938,48.00334087 v 51.339231 c 0,27.394378 -26.276238,50.016058 -41.678618,50.016058 h -54.32322 c -13.5952399,0 -17.14423987,-10.94489 -17.14423987,-24.54013 V 19.404573 c 0,-13.5952313 6.66198017,-19.41576287 22.96787987,-19.41576287 z"
       sodipodi:nodetypes="sssssssss" />
    <path
       style="fill:#242b70;stroke-width:0.273145"
       d="m 8.5225223,141.53038 c 0,-128.019474 0,3.00738 0.003,-129.377431 0.45115,-6.1796273 5.8820697,-7.0385009 8.2777897,-7.0323729 3.88362,0.0099 24.47036,0.01115 38.57247,-0.01001 9.2916,-0.01392 20.19634,4.7376456 27.85743,9.1397509 3.76889,2.218107 6.74336,4.534162 10.24434,7.976707 2.49716,2.455478 3.222798,3.356584 3.960608,4.918287 1.68757,3.572111 1.08272,7.378103 -1.610608,10.134546 -2.62176,2.683207 -5.9473,4.190008 -9.26907,4.199826 -3.79031,0.01115 -8.60572,-1.86308 -12.93668,-5.035285 -3.1166,-2.282755 -5.14448,-3.462679 -7.92266,-4.609818 -4.78378,-1.975286 -9.58217,-2.806296 -14.74839,-2.554203 -8.73948,0.426447 -16.38786,3.80788 -22.62349,10.002083 -8.22272,8.168085 -11.76842,20.026846 -9.35643,31.292951 1.40602,6.567288 4.46506,12.225426 9.16675,16.955173 6.66285,6.702619 15.03422,10.221448 24.31547,10.220808 13.088,-8.1e-4 23.51294,-6.338297 31.53355,-19.16947 0.96838,-1.549212 2.82336,-5.090681 4.12217,-7.86994 3.95948,-8.472734 7.63255,-14.489865 10.778068,-17.656403 2.54952,-2.566571 8.33189,-6.094693 11.14665,-6.801147 l 0.75736,-0.190089 c 0.0359,10.352208 0.11526,21.167584 -0.1677,31.048407 -0.34536,10.826649 -1.00231,12.361563 -1.61272,15.314288 -2.11274,10.220082 -6.23224,19.357142 -12.551038,27.838292 -6.07815,8.15814 -12.65889,13.95926 -19.69641,17.36299 -2.86576,1.38603 -8.41714,3.84566 -11.92372,3.84897 z"
       id="path865" />
    <path
       style="fill:#ca4e9c;stroke-width:0.273145"
       d="m 46.981962,89.961665 c -5.46589,-1.201017 -9.94918,-3.635694 -13.7934,-7.490619 -11.31886,-11.350356 -10.25638,-30.136286 2.26439,-40.036929 5.41737,-4.283727 11.2271,-6.117168 18.34174,-5.788309 12.07013,0.557919 22.16663,9.122719 24.91139,21.132185 0.65589,2.869796 0.66895,8.183942 0.0276,11.199321 -0.95503,4.4896 -3.48921,9.434069 -6.59184,12.86138 -2.47955,2.739027 -6.64832,5.520143 -10.35108,6.905519 -4.13358,1.546568 -10.81209,2.095619 -14.80872,1.217452 z"
       id="path871" />
    <path
       d="m 178.53738,54.462872 q 10.03915,0 17.61414,3.924394 7.66627,3.924392 11.77318,11.22559 4.1982,7.209933 4.1982,16.792753 0,9.582823 -4.1982,16.792751 -4.10691,7.11866 -11.77318,11.04306 -7.57499,3.92439 -17.61414,3.92439 H 156.26874 V 54.462872 Z m -0.45632,52.842408 q 10.03915,0 15.51504,-5.4759 5.47591,-5.475888 5.47591,-15.423771 0,-9.947881 -5.47591,-15.515043 -5.47589,-5.658428 -15.51504,-5.658428 h -9.03523 v 42.073142 z"
       style="font-style:normal;font-variant:normal;font-weight:600;font-stretch:normal;font-size:77.8686px;line-height:1.25;font-family:Poppins;-inkscape-font-specification:'Poppins Semi-Bold';fill:#262c3a;fill-opacity:1;stroke:none;stroke-width:7.48428"
       id="path855" />
    <path
       d="m 218.42009,92.702892 q 0,-7.666257 3.01174,-13.598479 3.10301,-5.932223 8.30511,-9.126497 5.29337,-3.194273 11.77318,-3.194273 5.65844,0 9.85662,2.281624 4.28946,2.281624 6.84488,5.749692 v -7.209932 h 12.86836 v 50.560783 h -12.86836 v -7.39246 q -2.46416,3.55933 -6.84488,5.93223 -4.28945,2.28162 -9.94788,2.28162 -6.38855,0 -11.68192,-3.28554 -5.2021,-3.28554 -8.30511,-9.21776 -3.01174,-6.02349 -3.01174,-13.781008 z m 39.79153,0.18253 q 0,-4.654514 -1.82531,-7.940052 -1.8253,-3.376803 -4.9283,-5.110838 -3.10301,-1.8253 -6.66235,-1.8253 -3.55933,0 -6.57108,1.734035 -3.01174,1.734034 -4.9283,5.110838 -1.8253,3.285539 -1.8253,7.848787 0,4.56325 1.8253,8.031308 1.91656,3.37681 4.9283,5.20211 3.10302,1.8253 6.57108,1.8253 3.55934,0 6.66235,-1.73404 3.103,-1.8253 4.9283,-5.11084 1.82531,-3.376798 1.82531,-8.031308 z"
       style="font-style:normal;font-variant:normal;font-weight:600;font-stretch:normal;font-size:77.8686px;line-height:1.25;font-family:Poppins;-inkscape-font-specification:'Poppins Semi-Bold';fill:#262c3a;fill-opacity:1;stroke:none;stroke-width:7.48428"
       id="path857" />
    <path
       d="m 296.36033,74.906224 q 2.46416,-3.468069 6.7536,-5.749693 4.38073,-2.372888 9.94789,-2.372888 6.47981,0 11.68191,3.194273 5.29337,3.194274 8.30511,9.126497 3.10302,5.840957 3.10302,13.598479 0,7.757518 -3.10302,13.781008 -3.01174,5.93222 -8.30511,9.21776 -5.2021,3.28554 -11.68191,3.28554 -5.56716,0 -9.85662,-2.28162 -4.19818,-2.28163 -6.84487,-5.7497 v 31.30388 h -12.7771 V 67.605027 h 12.7771 z m 26.74064,17.796668 q 0,-4.563248 -1.91656,-7.848787 -1.82531,-3.376804 -4.92832,-5.110838 -3.01174,-1.734035 -6.57108,-1.734035 -3.46806,0 -6.57108,1.8253 -3.01174,1.734035 -4.9283,5.110838 -1.8253,3.376804 -1.8253,7.940052 0,4.56325 1.8253,7.940048 1.91656,3.3768 4.9283,5.2021 3.10302,1.73404 6.57108,1.73404 3.55934,0 6.57108,-1.8253 3.10301,-1.8253 4.92832,-5.20211 1.91656,-3.376798 1.91656,-8.031308 z"
       style="font-style:normal;font-variant:normal;font-weight:600;font-stretch:normal;font-size:77.8686px;line-height:1.25;font-family:Poppins;-inkscape-font-specification:'Poppins Semi-Bold';fill:#262c3a;fill-opacity:1;stroke:none;stroke-width:7.48428"
       id="path859" />
    <path
       d="m 393.1924,67.605027 v 50.560783 h -12.86836 v -6.38855 q -2.46415,3.28554 -6.47981,5.20211 -3.92439,1.82529 -8.57891,1.82529 -5.93222,0 -10.49547,-2.46415 -4.56325,-2.55542 -7.20993,-7.39246 -2.55542,-4.92831 -2.55542,-11.681908 V 67.605027 h 12.77709 v 27.835815 q 0,6.023478 3.01175,9.309018 3.01174,3.19428 8.21384,3.19428 5.29337,0 8.30512,-3.19428 3.01174,-3.28554 3.01174,-9.309018 V 67.605027 Z"
       style="font-style:normal;font-variant:normal;font-weight:600;font-stretch:normal;font-size:77.8686px;line-height:1.25;font-family:Poppins;-inkscape-font-specification:'Poppins Semi-Bold';fill:#262c3a;fill-opacity:1;stroke:none;stroke-width:7.48428"
       id="path861" />
    <path
       d="m 418.56401,75.453814 q 2.46415,-4.015659 6.38855,-6.297283 4.01566,-2.281624 9.12649,-2.281624 v 13.41595 h -3.3768 q -6.02349,0 -9.1265,2.829214 -3.01174,2.829213 -3.01174,9.856617 v 25.189122 h -12.7771 V 67.605027 h 12.7771 z"
       style="font-style:normal;font-variant:normal;font-weight:600;font-stretch:normal;font-size:77.8686px;line-height:1.25;font-family:Poppins;-inkscape-font-specification:'Poppins Semi-Bold';fill:#262c3a;fill-opacity:1;stroke:none;stroke-width:7.48428"
       id="path863" />
    <path
       d="M 478.61629,118.16581 455.43499,89.782414 V 118.16581 H 442.6579 V 54.462872 h 12.77709 v 28.565934 l 23.1813,-28.565934 h 15.42379 l -26.28432,31.577678 27.01444,32.12526 z"
       style="font-style:normal;font-variant:normal;font-weight:600;font-stretch:normal;font-size:77.8686px;line-height:1.25;font-family:Poppins;-inkscape-font-specification:'Poppins Semi-Bold';fill:#262c3a;fill-opacity:1;stroke:none;stroke-width:7.48428"
       id="path866" />
    <path
       d="m 499.88087,92.702892 q 0,-7.666257 3.01174,-13.598479 3.10301,-5.932223 8.30511,-9.126497 5.29337,-3.194273 11.77318,-3.194273 5.65842,0 9.85662,2.281624 4.28945,2.281624 6.84488,5.749692 v -7.209932 h 12.86835 V 118.16581 H 539.6724 v -7.39246 q -2.46417,3.55933 -6.84488,5.93223 -4.28945,2.28162 -9.94789,2.28162 -6.38854,0 -11.68191,-3.28554 -5.2021,-3.28554 -8.30511,-9.21776 -3.01174,-6.02349 -3.01174,-13.781008 z m 39.79153,0.18253 q 0,-4.654514 -1.82531,-7.940052 -1.8253,-3.376803 -4.92831,-5.110838 -3.103,-1.8253 -6.66234,-1.8253 -3.55933,0 -6.57108,1.734035 -3.01174,1.734034 -4.9283,5.110838 -1.8253,3.285539 -1.8253,7.848787 0,4.56325 1.8253,8.031308 1.91656,3.37681 4.9283,5.20211 3.10301,1.8253 6.57108,1.8253 3.55934,0 6.66234,-1.73404 3.10301,-1.8253 4.92831,-5.11084 1.82531,-3.376798 1.82531,-8.031308 z"
       style="font-style:normal;font-variant:normal;font-weight:600;font-stretch:normal;font-size:77.8686px;line-height:1.25;font-family:Poppins;-inkscape-font-specification:'Poppins Semi-Bold';fill:#262c3a;fill-opacity:1;stroke:none;stroke-width:7.48428"
       id="path868" />
    <path
       d="M 579.92018,78.100498 V 102.5595 q 0,2.55542 1.18645,3.74187 1.27771,1.09518 4.19819,1.09518 h 5.93221 v 10.76926 h -8.03131 q -16.15389,0 -16.15389,-15.69757 V 78.100498 h -6.02349 V 67.605027 h 6.02349 v -12.5033 h 12.86835 v 12.5033 h 11.31685 v 10.495471 z"
       style="font-style:normal;font-variant:normal;font-weight:600;font-stretch:normal;font-size:77.8686px;line-height:1.25;font-family:Poppins;-inkscape-font-specification:'Poppins Semi-Bold';fill:#262c3a;fill-opacity:1;stroke:none;stroke-width:7.48428"
       id="path870" />
    <path
       d="m 597.16915,92.702892 q 0,-7.666257 3.01174,-13.598479 3.10301,-5.932223 8.30511,-9.126497 5.29337,-3.194273 11.77318,-3.194273 5.65844,0 9.85662,2.281624 4.28946,2.281624 6.84488,5.749692 v -7.209932 h 12.86835 v 50.560783 h -12.86835 v -7.39246 q -2.46415,3.55933 -6.84488,5.93223 -4.28945,2.28162 -9.94787,2.28162 -6.38856,0 -11.68193,-3.28554 -5.2021,-3.28554 -8.30511,-9.21776 -3.01174,-6.02349 -3.01174,-13.781008 z m 39.79153,0.18253 q 0,-4.654514 -1.8253,-7.940052 -1.82531,-3.376803 -4.92831,-5.110838 -3.10301,-1.8253 -6.66235,-1.8253 -3.55933,0 -6.57108,1.734035 -3.01174,1.734034 -4.9283,5.110838 -1.8253,3.285539 -1.8253,7.848787 0,4.56325 1.8253,8.031308 1.91656,3.37681 4.9283,5.20211 3.10302,1.8253 6.57108,1.8253 3.55934,0 6.66235,-1.73404 3.103,-1.8253 4.92831,-5.11084 1.8253,-3.376798 1.8253,-8.031308 z"
       style="font-style:normal;font-variant:normal;font-weight:600;font-stretch:normal;font-size:77.8686px;line-height:1.25;font-family:Poppins;-inkscape-font-specification:'Poppins Semi-Bold';fill:#262c3a;fill-opacity:1;stroke:none;stroke-width:7.48428"
       id="path872" />
    <path
       d="m 176.17434,26.930488 q 0,2.190007 -1.0559,4.106264 -1.01679,1.916257 -3.2459,3.089475 -2.19001,1.173219 -5.55323,1.173219 h -4.57556 v 10.48075 h -5.47501 V 18.483315 h 10.05057 q 3.16769,0 5.3968,1.095003 2.22912,1.095005 3.32412,3.011262 1.13411,1.916256 1.13411,4.340908 z m -10.08967,3.949835 q 2.26822,0 3.36322,-1.01679 1.09501,-1.055896 1.09501,-2.933045 0,-3.988943 -4.45823,-3.988943 h -4.34092 v 7.938778 z"
       style="font-style:normal;font-variant:normal;font-weight:600;font-stretch:normal;font-size:33.3669px;line-height:1.25;font-family:Poppins;-inkscape-font-specification:'Poppins Semi-Bold';fill:#262c3a;fill-opacity:1;stroke:none;stroke-width:3.20704"
       id="path838" />
    <path
       d="m 200.1862,34.478193 q 0,1.173218 -0.15643,2.111793 h -15.83844 q 0.19553,2.346437 1.64251,3.676084 1.44696,1.329647 3.55876,1.329647 3.05036,0 4.3409,-2.620187 h 5.9052 q -0.93857,3.128582 -3.59787,5.162161 -2.65929,1.99447 -6.53091,1.99447 -3.12859,0 -5.63145,-1.368754 -2.46376,-1.407863 -3.87162,-3.949835 -1.36875,-2.541974 -1.36875,-5.866092 0,-3.363226 1.36875,-5.905199 1.36875,-2.541974 3.83252,-3.910729 2.46375,-1.368754 5.67055,-1.368754 3.08947,0 5.51412,1.329648 2.46376,1.329647 3.79341,3.793405 1.36875,2.424652 1.36875,5.592342 z m -5.67055,-1.564292 q -0.0392,-2.111793 -1.52519,-3.363226 -1.48607,-1.290539 -3.63697,-1.290539 -2.03358,0 -3.44144,1.251431 -1.36876,1.212326 -1.68162,3.402334 z"
       style="font-style:normal;font-variant:normal;font-weight:600;font-stretch:normal;font-size:33.3669px;line-height:1.25;font-family:Poppins;-inkscape-font-specification:'Poppins Semi-Bold';fill:#262c3a;fill-opacity:1;stroke:none;stroke-width:3.20704"
       id="path840" />
    <path
       d="m 216.18103,23.801905 q 3.87162,0 6.25716,2.463759 2.38556,2.424651 2.38556,6.804666 v 12.709866 h -5.47503 V 33.813369 q 0,-2.581081 -1.29054,-3.949836 -1.29054,-1.407862 -3.51965,-1.407862 -2.26823,0 -3.59787,1.407862 -1.29054,1.368755 -1.29054,3.949836 V 45.780196 H 204.1751 V 24.114763 h 5.47502 v 2.698402 q 1.095,-1.407861 2.77662,-2.190007 1.72071,-0.821253 3.75429,-0.821253 z"
       style="font-style:normal;font-variant:normal;font-weight:600;font-stretch:normal;font-size:33.3669px;line-height:1.25;font-family:Poppins;-inkscape-font-specification:'Poppins Semi-Bold';fill:#262c3a;fill-opacity:1;stroke:none;stroke-width:3.20704"
       id="path842" />
    <path
       d="m 250.16523,34.478193 q 0,1.173218 -0.15644,2.111793 h -15.83844 q 0.19553,2.346437 1.64251,3.676084 1.44696,1.329647 3.55876,1.329647 3.05037,0 4.3409,-2.620187 h 5.90521 q -0.93858,3.128582 -3.59787,5.162161 -2.6593,1.99447 -6.53092,1.99447 -3.12858,0 -5.63145,-1.368754 -2.46376,-1.407863 -3.87162,-3.949835 -1.36875,-2.541974 -1.36875,-5.866092 0,-3.363226 1.36875,-5.905199 1.36875,-2.541974 3.83252,-3.910729 2.46375,-1.368754 5.67055,-1.368754 3.08947,0 5.51413,1.329648 2.46376,1.329647 3.7934,3.793405 1.36876,2.424652 1.36876,5.592342 z m -5.67056,-1.564292 q -0.0392,-2.111793 -1.52518,-3.363226 -1.48608,-1.290539 -3.63698,-1.290539 -2.03358,0 -3.44144,1.251431 -1.36876,1.212326 -1.68161,3.402334 z"
       style="font-style:normal;font-variant:normal;font-weight:600;font-stretch:normal;font-size:33.3669px;line-height:1.25;font-family:Poppins;-inkscape-font-specification:'Poppins Semi-Bold';fill:#262c3a;fill-opacity:1;stroke:none;stroke-width:3.20704"
       id="path844" />
    <path
       d="m 259.62914,27.47799 q 1.05589,-1.720721 2.73751,-2.698403 1.72071,-0.977682 3.91072,-0.977682 v 5.74877 h -1.44696 q -2.58108,0 -3.91073,1.212326 -1.29054,1.212325 -1.29054,4.223587 v 10.793608 h -5.47502 V 24.114763 h 5.47502 z"
       style="font-style:normal;font-variant:normal;font-weight:600;font-stretch:normal;font-size:33.3669px;line-height:1.25;font-family:Poppins;-inkscape-font-specification:'Poppins Semi-Bold';fill:#262c3a;fill-opacity:1;stroke:none;stroke-width:3.20704"
       id="path846" />
    <path
       d="m 275.42845,27.282453 q 1.0559,-1.564291 2.89394,-2.541974 1.87714,-0.977681 4.26269,-0.977681 2.77661,0 5.00574,1.368754 2.26822,1.368755 3.55875,3.910729 1.32965,2.502865 1.32965,5.826984 0,3.324118 -1.32965,5.9052 -1.29053,2.541973 -3.55875,3.949835 -2.22913,1.407861 -5.00574,1.407861 -2.42466,0 -4.26269,-0.938574 -1.79894,-0.977682 -2.89394,-2.502866 v 3.089475 h -5.47503 V 16.840809 h 5.47503 z m 11.45843,7.586812 q 0,-1.955364 -0.82125,-3.363226 -0.78215,-1.446969 -2.1118,-2.190007 -1.29053,-0.743038 -2.81572,-0.743038 -1.48608,0 -2.81572,0.782145 -1.29055,0.743038 -2.11179,2.190007 -0.78215,1.44697 -0.78215,3.402334 0,1.955364 0.78215,3.402333 0.82124,1.446969 2.11179,2.229115 1.32964,0.743039 2.81572,0.743039 1.52519,0 2.81572,-0.782146 1.32965,-0.782145 2.1118,-2.229115 0.82125,-1.446969 0.82125,-3.441441 z"
       style="font-style:normal;font-variant:normal;font-weight:600;font-stretch:normal;font-size:33.3669px;line-height:1.25;font-family:Poppins;-inkscape-font-specification:'Poppins Semi-Bold';fill:#262c3a;fill-opacity:1;stroke:none;stroke-width:3.20704"
       id="path848" />
    <path
       d="m 299.24477,21.533682 q -1.44698,0 -2.42466,-0.899466 -0.93858,-0.938575 -0.93858,-2.30733 0,-1.368755 0.93858,-2.268223 0.97768,-0.938574 2.42466,-0.938574 1.44696,0 2.38554,0.938574 0.97768,0.899468 0.97768,2.268223 0,1.368755 -0.97768,2.30733 -0.93858,0.899466 -2.38554,0.899466 z m 2.69839,2.581081 v 21.665433 h -5.47501 V 24.114763 Z"
       style="font-style:normal;font-variant:normal;font-weight:600;font-stretch:normal;font-size:33.3669px;line-height:1.25;font-family:Poppins;-inkscape-font-specification:'Poppins Semi-Bold';fill:#262c3a;fill-opacity:1;stroke:none;stroke-width:3.20704"
       id="path850" />
    <path
       d="m 313.71446,28.612101 v 10.48075 q 0,1.095004 0.50839,1.603399 0.54751,0.469287 1.79894,0.469287 h 2.54197 v 4.614659 h -3.44144 q -6.92199,0 -6.92199,-6.726452 V 28.612101 h -2.58108 v -4.497338 h 2.58108 v -5.357698 h 5.51413 v 5.357698 h 4.8493 v 4.497338 z"
       style="font-style:normal;font-variant:normal;font-weight:600;font-stretch:normal;font-size:33.3669px;line-height:1.25;font-family:Poppins;-inkscape-font-specification:'Poppins Semi-Bold';fill:#262c3a;fill-opacity:1;stroke:none;stroke-width:3.20704"
       id="path852" />
  </g>
</svg>
