<?xml version="1.0" encoding="UTF-8" standalone="no"?>
<!-- Created with Inkscape (http://www.inkscape.org/) -->

<svg
   width="200mm"
   height="200mm"
   viewBox="0 0 200 200"
   version="1.1"
   id="svg5"
   inkscape:version="1.1 (c4e8f9ed74, 2021-05-24)"
   sodipodi:docname="default.svg"
   xmlns:inkscape="http://www.inkscape.org/namespaces/inkscape"
   xmlns:sodipodi="http://sodipodi.sourceforge.net/DTD/sodipodi-0.dtd"
   xmlns="http://www.w3.org/2000/svg"
   xmlns:svg="http://www.w3.org/2000/svg">
  <sodipodi:namedview
     id="namedview7"
     pagecolor="#ffffff"
     bordercolor="#999999"
     borderopacity="1"
     inkscape:pageshadow="0"
     inkscape:pageopacity="0"
     inkscape:pagecheckerboard="true"
     inkscape:document-units="mm"
     showgrid="false"
     borderlayer="true"
     inkscape:zoom="0.32"
     inkscape:cx="385.9375"
     inkscape:cy="604.6875"
     inkscape:window-width="1366"
     inkscape:window-height="716"
     inkscape:window-x="0"
     inkscape:window-y="0"
     inkscape:window-maximized="1"
     inkscape:current-layer="layer1" />
  <defs
     id="defs2" />
  <g
     inkscape:label="Layer 1"
     inkscape:groupmode="layer"
     id="layer1">
    <path
       style="fill:#ffffff;stroke-width:0.210188"
       d="m 62.073072,149.66975 c 0,-98.512512 0,2.31421 0.0025,-99.557476 0.347166,-4.755297 4.526323,-5.41621 6.369858,-5.411495 2.988494,0.0076 18.830232,0.0086 29.681975,-0.0077 7.150005,-0.01071 15.541325,3.645676 21.436635,7.033147 2.9002,1.70686 5.18909,3.489093 7.88314,6.138172 1.92159,1.889519 2.47998,2.582931 3.04773,3.78468 1.29861,2.748782 0.83316,5.677538 -1.23939,7.798654 -2.01747,2.06476 -4.57651,3.224261 -7.13265,3.231816 -2.91669,0.0086 -6.62221,-1.433662 -9.95493,-3.874712 -2.39826,-1.756607 -3.95875,-2.664573 -6.09659,-3.547309 -3.68117,-1.520007 -7.373588,-2.159478 -11.349055,-1.96549 -6.725139,0.328156 -12.610655,2.930209 -17.409048,7.696722 -6.327479,6.285438 -9.055939,15.410897 -7.19988,24.080299 1.081943,5.053612 3.435918,9.407612 7.053922,13.047212 5.127144,5.15774 11.569013,7.86553 18.711045,7.86503 10.071376,-6.2e-4 18.093496,-4.87739 24.265446,-14.75113 0.74518,-1.19214 2.17261,-3.917347 3.17206,-6.056019 3.04687,-6.51987 5.87332,-11.150125 8.29385,-13.586813 1.96189,-1.975007 6.41148,-4.689939 8.57748,-5.233564 l 0.5828,-0.146275 c 0.0276,7.966147 0.0887,16.288708 -0.12906,23.892121 -0.26576,8.33124 -0.77128,9.51237 -1.241,11.78453 -1.62578,7.86447 -4.79579,14.89555 -9.65818,21.4219 -4.6772,6.27778 -9.74116,10.74181 -15.15662,13.36102 -2.20524,1.06657 -6.47709,2.95929 -9.17544,2.96183 z"
       id="path865" />
    <path
       style="fill:#ffffff;stroke-width:0.210188"
       d="m 91.668071,109.98701 c -4.20607,-0.9242 -7.656018,-2.79771 -10.614192,-5.76412 -8.709996,-8.734237 -7.892401,-23.190233 1.742475,-30.808896 4.168734,-3.296379 8.63939,-4.707234 14.114194,-4.454173 9.288112,0.429325 17.057482,7.020041 19.169612,16.261468 0.50471,2.208342 0.51476,6.297641 0.0212,8.618011 -0.73491,3.4548 -2.68499,7.25963 -5.0725,9.89699 -1.90805,2.10771 -5.11597,4.24781 -7.96528,5.31387 -3.180841,1.19011 -8.320036,1.61261 -11.395489,0.93685 z"
       id="path871" />
  </g>
</svg>
